<svg viewBox="0 0 646 644" fill="none" xmlns="http://www.w3.org/2000/svg">
    <path fill-rule="evenodd" clip-rule="evenodd"
        d="M402.1 183.8c-4.8.2-9.4-.7-13.6-3.3-6-3.6-9.2-9-10.4-15.9-.8-5.2 0-10.3.8-15.3.3-2.2 1.3-4.5 2.5-6.5a19 19 0 0 1 10.4-8c3.3-1.2 6.7-2 10.2-2.3 1.4 0 2.8.3 4.1.6 4.7.7 9.3 1.3 13.1 4.3 3.4 2.5 6.8 5 8.4 9a24 24 0 0 1 .4 19.5 38.2 38.2 0 0 1-6.7 10.8 23.3 23.3 0 0 1-16.4 7.1H402Zm-1.7-47.4h-1.8c-2.6 1-5.4 1.6-7.7 3a14 14 0 0 0-6.8 8c-.8 2.5-1.1 5.1-1.5 7.7-1 5.4 0 10.4 1.9 15.4a8 8 0 0 0 3.6 4.1c4-4.6 8-9 11.8-13.6a6.9 6.9 0 0 0 1.8-5.2l-1.3-19.4Zm4.9 0c-.7 2-.5 4-.4 5.9.3 3 .8 5.9 1 8.9.2 2.2 0 4.4 0 6.2l14 14.8 2.5-4.1a23 23 0 0 0 2.3-16.4c-.6-3.3-2.4-5.7-4.5-8-2.5-2.7-5.2-5-8.8-6l-6.1-1.4Zm1.3 43.3c4.1-.8 7.7-1.6 10.6-4.2a70 70 0 0 0-10.6-11v15.2Zm-5-14.4-10.3 12c3.4 2.5 7 3 10.8 2.3-.3-4.7.5-9.3-.4-14.3ZM146.5 372.8l11.4 3.1c.2-2.2-5-16.6-7.7-20.9-4 1-8 1.3-12.2.8-4.4-.5-8.1-2-11.5-5-5.9-5.3-9.6-11.7-11.1-19.3l-.8-2.4c-2.6-8.1-.1-14.8 5.5-20.7 7.8-8 23.6-9 32.2-3.6 5.6 3.5 9.4 8.6 11.7 14.8l1.6 4.7c3.4 8 1.2 20.1-6.6 25.6l-1.9 1.7c-1.9 1.7-2 2-1 4.5 1.8 5 3.8 9.8 6 15.3.4-1 .8-1.7.9-2.4l1.1-8.4c.2-1.3.8-2.1 2.1-2.2 1.4-.1 2.5.4 2.7 2 .1.8.5 1.7.4 2.4-1.1 6.1-2.2 12.3-3.6 18.3-.8 3.7-1.5 3.6-4.9 2.1-4-1.7-8.2-3-12.4-4.2-3.1-.9-4-2.7-1.9-6.2Zm-.8-22.5c6.3-1.4 11.2-5 14.3-10.7 2.4-4.5 3.5-9.3 1.4-14.3l-3.7-7.8a16 16 0 0 0-11.5-10c-8.5-1.8-16.6-.5-23 6a13.8 13.8 0 0 0-4.2 13.9c1.3 4.7 2.7 9.5 5.4 13.8 4.7 7.9 13.1 11 21.3 9ZM511.3 543.9l7.1-4c2.2-1 3.4-.7 4.2 1 1 2.2.5 3.7-1.8 4.7-2.2 1-4.6 1.9-6.3 4.1.8 2.8 4.9 5 2.3 8.8-4.4-.3-4.7-4.4-7.1-6.7l-9.2 4.8 1.4 3.9a25 25 0 0 1-7.2 27.7c-5.2 4.2-11.2 6-17.6 7-8.4 1.4-15-2.1-21.1-7.5a31.4 31.4 0 0 1-9-17.7 19 19 0 0 1 2-13 26 26 0 0 1 16-14.3 39.2 39.2 0 0 1 16.6-2c5 .6 9 3 12.4 6.5l3.6 3.9 9-5c-.8-1.7-1.6-3.3-2.2-4.9-.3-.8-.6-1.7-.5-2.6 0-1 .3-2.2 1.6-2.4 1.3-.2 2.2.5 2.7 1.7l2 4.2c.2.6.6 1 1 1.7Zm-13.5 19.7-2-5.8c-2.7-6-7-10.5-13.7-11.4-9.8-1.4-18.6.9-25 9-7 8.6-7 17.6-.5 26.1 2.8 3.7 6.7 6.1 11 7.8 2.2 1 4.6 1 7 .8 3.2-.4 6-1.8 9-2.6 4.4-1.2 7.4-4 10.2-7.2 1-1 1.9-2.2 2.4-3.6a21 21 0 0 0 1.6-13ZM339.7 574c.4-2 .5-3.3 1-4.6.5-1.8 3-2.6 4.5-1.4.5.4.8 1.2.8 1.9 0 5.1-.2 10.3 1.3 15.3.6 2.1-1.6 3.7-4.3 3.1-.6 0-1.2-.4-1.8-.7-4.4-2.1-8.8-4.2-13-6.4-2.7-1.3-3-2-2.2-3.4.7-1.6 3-2.2 4.9-1.4 1.1.6 2.3 1.2 3.5 1.6-4.7-7.5-10.6-14-16.7-20.6-2.7 3-4.5 6.5-6.5 9.8l-10 16.2-4 6.3c-2 3.7-3.4 3.8-6.7.4l5.7-9.4 11.1-18 6-9.5c.7-1 1.7-1.4 3-1.5 3.2-.5 5.3.7 7.3 3.2 4.6 5.7 9.3 11.2 14 16.7l2.2 2.4ZM340 630.7c10 .9 19.6 1.3 29.7-.2-1.4-2.3-2.6-4.4-4-6.3l-8.2-11.7-6.6-10.2c-1.3-2.1-1.3-3.6.1-4.7 2-1.3 3.9-.7 5.2 1.3l20 30.1c.7 1 1.3 2.3 1.3 3.4 0 1.2-.8 2.3-2.3 2.5-1.8.3-3.5.6-5.3.7-3.4.3-6.8.8-10.2.9H342c-.4 0-1 .2-1.7.8 1.3.6 2.6 1.2 3.9 2 1 .5 2 1 2.7 1.9.9 1 .4 2.4-1 2.5a11 11 0 0 1-4.8-.7c-4.4-2-8.8-4.4-13.7-5-1.1 0-2.2-.6-2.2-1.8 0-.8.6-1.8 1.2-2.3 1.8-1.5 3.8-2.9 5.7-4.3 2.8-2.2 5.6-4.3 8.3-6.6 1.3-1 2.5-1.4 4-.6 1.7 1 2 2.3.7 3.7l-2.5 2.4-2.5 2.2ZM282.5 608.4c-1.5.7-2.2 1.3-3 1.5-1 .4-2 .8-3 .6-1-.2-2.3-.8-2.7-1.6-.6-1.3.7-2 1.7-2.6 4.9-2.8 9.7-5.6 14.7-8.2 3-1.6 5.5.1 5.4 3.4 0 4.4-.3 8.7 1 13l-.2 2h-3.6c-1.3-.2-2.1-.8-2.3-2.2l-1-5.3-14.2 22.6 6.7.3 28.7-.2c1.8 0 3.3.4 4.3 2 1 1.5.4 3-1.4 3-4.3.3-8.5.4-12.8.5h-20.5c-2.3 0-4.6.1-6.8.6-2.6.5-4.2-1-5.6-2.5-1.4-1.5-.2-3.2.7-4.6 2-3.3 4.3-6.5 6.4-9.9l7.5-12.4ZM634 384l-1.5-19.3c-8.2.1-16 0-23.9 1.2l.6 9.3c.2 5.1.3 10.3.3 15.4 0 1.5-.7 2.3-2.2 3a17 17 0 0 1-11.7.6 9.7 9.7 0 0 1-3.7-2.4c-3-2.7-2.3-6.1 1.5-7.6 3-1.1 6.2-.7 9.3-.1 1.1.2 2.2.7 3.7 1.2.4-2.7.4-5.3.3-7.9l-1.1-19.1c-.2-3.2.2-3.4 3.3-3.2 6.4.4 12.8-.6 19-1.6l6.3-.9.4 4.6c.5 10.3.8 20.7 2.8 30.9.7 3.5-.8 4.9-3.6 5.4-2.3.4-4.6 1-6.9 1-3 0-5.8-.5-7-4-1.2-3.7.6-7 4.4-7.4 2.5-.3 5.1-.6 7.6.4.5.2 1 .2 2.1.4Zm-25.2-21.7 23.5-1-.4-5-23.4 2.5.3 3.5ZM550.7 527.6l-1.4-14.8-1-8.6c0-.9.4-1.8.7-3.3 1 1 1.6 1.4 2 2 1.5 1.9 3.1 3.7 4.3 5.7 2.2 3.6 5.5 5 9.3 5.6 1.2.2 2 .6 2.4 2-2.7 1.4-3.9 1.4-15-1.4 0 2.6.1 5 .4 7.5l1.3 9.8c.2 1.3-.4 2-1.5 2.4a17 17 0 0 1-15.5-1c-2.3-1.4-2.4-4.7-.4-6.4 3-2.4 6.3-1.8 9.6-1.1 1.5.3 2.9 1 4.8 1.6ZM304.3 74c-.2 0-.5 0-.7.2l-11 3.6c-7.6 2.6-15.6 4-23.3 6.6a465 465 0 0 1-35.6 10l-10.8 3c-2.2.7-2.2.6-3-1.7-.5-2-.7-1.4-1.3-3.3l-.6-2.1c-.3-1.4.1-2.4 1.7-2.8l4-1.3-1-6.4-3.9-15c-.9-3.4-.9-3.4-4.5-3.7.3-.9.4-1.8.9-2.5 6.8-10.8 13.3-21.8 20.9-32l6.7-9.5c1.2-1.8 1.8-2.1 3.8-1.3l4.8 2.3c6.5 2.7 12.7 6.2 19 9.2 6.8 3.2 12.6 7.7 19 11.4 1.2.8 2.6 1.5 1.2 3.4-.3.3-.3 1-.2 1.4l4.4 21 .4.7 6.6-1.5c.5 3.6 2.8 6.6 2.6 10.2Zm-18-33.8a195.7 195.7 0 0 0-41-22.4 257.6 257.6 0 0 0-26.7 40.5c22.5-6.4 44.9-12.9 67.8-18Zm13.4 26.3L280.1 72c-2.6.7-5.1 1.7-7.7 2.4-6.3 1.9-12.6 3.6-19 5.4l-29 8.5-4.1 1.6c1 2.7 1.3 2.5 2.4 5.2 1.7-.3 3.3-.5 4.9-1l4.5-1.2c8.6-2.7 17.6-4 26.2-7 11.3-3.7 22.8-6.6 34.1-10.5l9.3-2.8-2-6Zm-51.6-13.8c2 8.4 4 16.5 5.8 24.7l11.2-3.2c-1.7-8.5-4.2-16.3-5.9-24.7l-11 3.2Zm-19.9 5.4c.5 7.7 4 22.8 6 25.1l9-2.7-5.4-25.4-9.6 3Zm56 10.2c-1.5-8.2-2.7-16-5-23.5l-8.6 2 6.4 23.6 7.1-2Zm-9.7 3c-.5-2.8-.8-5.3-1.5-7.8-1.5-5.3-3-10.7-4.7-16.1l-6.9 1.6c1.4 8.2 4 16 6 24l7-1.7Zm-28.7 8.6 5.4-1.7c-1-8.6-3.2-16.7-5.3-25l-5.6 1.4c1 8.5 3 16.8 5.5 25.2Zm42.1-37-6.3 1.5c2.2 7.6 2.7 15.4 5 22.7 2.1-.5 3.9-1 5.7-1.3L288 42.9Zm-67.6 17.6 5.8 24.8 5-1.2-5.2-25.2-5.6 1.6Z"
        fill="#212121" />
    <path fill-rule="evenodd" clip-rule="evenodd"
        d="M286.4 40.2c-23 5.2-45.3 11.7-67.8 18.1 1.3-4.8 19.2-31.9 26.8-40.5a194.5 194.5 0 0 1 41 22.4ZM299.7 66.5l2 6c-3.4 1.1-6.4 1.9-9.3 3-11.3 3.8-22.8 6.7-34.1 10.5-8.6 2.8-17.6 4.1-26.2 6.8l-4.5 1.4-5 .9c-1-2.7-1.3-2.5-2.3-5.2l4.1-1.6a5317 5317 0 0 1 29-8.5c6.3-1.8 12.7-3.5 19-5.4 2.6-.7 5-1.7 7.7-2.5l19.6-5.4ZM274.4 71.3l-7 1.6c-2-7.8-4.6-15.7-6-24l6.9-1.5 4.7 16.1c.6 2.5 1 5 1.4 7.8ZM245.8 79.9c-2.6-8.5-4.5-16.8-5.5-25.3l5.5-1.3c2.2 8.2 4.4 16.3 5.4 25-1.8.4-3.4 1-5.4 1.6ZM288 43l4.3 22.8-5.7 1.3c-2.4-7.3-2.8-15-5-22.7l6.3-1.5ZM220.3 60.5l5.6-1.6L231 84l-5 1.2-5.8-24.8Z"
        fill="#AEABAB" />
    <path fill-rule="evenodd" clip-rule="evenodd"
        d="M612.8 286.6c-3.5-5.8-4.8-12-5-18.7 2-1 4-2 6-2.8 1.2-.4 2 .5 1.7 2l-.5 6.1c.7-.5 1-.6 1.1-.8 3.7-4.3 8.5-4.8 13.6-4.6l.8.1c1 .4 1.2 1.3.6 2-1 1.2-2.2 2.3-3.1 3.6-3 4.2-7.2 6.2-12.2 6.8l-.7.2.8 6.3 1.6-1.3A28.8 28.8 0 0 1 633 277c4.5-.4 7.8 1.5 10 5.3 2 3.3 2.4 6.9 2.4 10.5 0 9.2-2 18-6 26.3a18 18 0 0 1-18 11.3 34.3 34.3 0 0 1-18-7.2 39.7 39.7 0 0 1-12.1-13.7 27.4 27.4 0 0 1-3.2-10.3A12.6 12.6 0 0 1 597 286c2.4-.7 5.3-.4 8-.3 2.5.2 5 .6 7.8 1Zm4 4.8c-.5-.2-1-.2-1.3-.4-1.7-1.6-3.8-2-6-2.6-2.8-.8-5.8-.8-8.7-1-5.7-.5-11 5.6-10.6 11.1.3 4.5 1.8 8.5 4.3 12.2a40.9 40.9 0 0 0 14.7 13.6c3.7 2 7.6 3.6 11.9 3.8 6.7.1 12.2-2 15.6-8.2 5.4-10.2 7.7-21 6.4-32.4-.3-3-2-5.8-4.8-7.3a9.5 9.5 0 0 0-8.4-.2c-5.4 2.4-10.9 5-13.1 11.4Zm10.8-21.3c-5.7-.6-11.7 3.3-11.8 7.7 5.2.2 8.9-2.3 11.8-7.7Z"
        fill="#212121" />
    <path fill-rule="evenodd" clip-rule="evenodd"
        d="M616.8 291.4c2.2-6.4 7.6-9 13.1-11.4a9.5 9.5 0 0 1 8.3.2 9.2 9.2 0 0 1 4.9 7.3c1.3 11.5-1 22.3-6.4 32.4-3.4 6.2-9 8.4-15.7 8.2-4.3-.1-8.1-1.8-11.9-3.8a41 41 0 0 1-14.7-13.5c-2.4-3.8-4-7.8-4.2-12.3-.4-5.5 4.9-11.5 10.6-11 3 .2 5.9.1 8.7.9 2.2.6 4.3 1 6 2.6.3.2.8.2 1.3.4ZM627.6 270.1c-3 5.4-6.6 8-11.8 7.7 0-4.4 6.1-8.3 11.8-7.7Z"
        fill="#fff" />
    <path fill-rule="evenodd" clip-rule="evenodd"
        d="M417.2 566.6c1.4 5.3 2.9 10.2 4 15.3 2 8.5 3.8 17 5.3 25.5.7 3.6.7 7.3.4 10.9-.4 4.3-2.9 7.4-7 9-4.4 1.7-8.8 2.5-13.4.6-2.4-1-4.3-2.7-4.8-5.3a80 80 0 0 1-1.4-14.8c0-3.8.3-7.5.5-11.2l.9-14.3 1-10.6v-3c-2.8-1.5-5.3-2.8-7.8-4.3-2.6-1.5-3.8-4-4.3-6.9-.7-4-.7-7.9 1.4-11.5 2.2-3.7 5.2-6.1 9.7-6.4 2.5 0 2.6.1 2.8 2.7l1.4 14 4.6-.5V553c-.3-2.1-.7-4.1-.9-6.2-.2-1.8.7-3 2.4-3.4 1.6-.4 3.3-.5 5-.8 7.8-1.2 14.4 8.8 10.8 16.2-1.6 3.2-4 5.2-7.1 6.5l-3.5 1.3ZM406 565c0 .5.2 1 .1 1.4-.3 1.5-.8 3-1 4.5l-1 15.2c-.7 8-1.8 15.9-1.4 23.9.2 3.7.1 7.4 1.2 11 .8 2.5 2.3 3.8 4.7 4.4 3 .8 5.8.2 8.7-.3 3.9-.8 6.3-3.1 7-7 .4-2.3.7-4.8.3-7-1.3-8.2-2.7-16.2-4.5-24.2-1.5-6.9-3.5-13.7-5.3-20.5-.6-2.2-.2-2.6 2-3.2 2-.5 4-1.2 5.8-2.2 3.9-2.4 4.7-7.3 2.3-11.2-2.6-4.5-8-5.5-12.8-3.3-.3 3.9 2 7.6 1 11.6l-7.5.9c-2 .1-2.5-.5-2.6-2.5l-.7-13c0-.5-.5-1-.6-1.4-6 1.1-9.1 5.3-9.1 12 0 6.5 3.6 9.5 13.4 11Z"
        fill="#212121" />
    <path fill-rule="evenodd" clip-rule="evenodd"
        d="M406 565.1c-9.8-1.4-13.4-4.4-13.4-10.9 0-6.7 3-10.9 9-12 .2.4.6.9.6 1.3l.8 13c.1 2.1.5 2.7 2.6 2.6l7.5-.9c.9-4-1.3-7.7-1-11.6 4.7-2.3 10.1-1.2 12.8 3.3 2.4 3.9 1.5 8.8-2.3 11.2-1.8 1-3.8 1.7-5.8 2.2-2.2.6-2.6 1-2 3.2 1.8 6.8 3.8 13.6 5.3 20.5 1.7 8 3.2 16 4.5 24.1.4 2.3 0 4.8-.3 7.1-.7 3.8-3.1 6.2-7 7-3 .5-5.7 1-8.7.3-2.5-.6-4-1.9-4.7-4.4-1-3.6-1-7.3-1.2-11-.4-8 .7-16 1.3-24L405 571c.1-1.5.7-3 1-4.5.1-.4 0-1-.1-1.4Z"
        fill="#EB1118" />
    <path fill-rule="evenodd" clip-rule="evenodd"
        d="m136.9 571.8-6.3 6.9a12 12 0 0 1-2.9 2.3c-1.3.7-2.3-.1-2.2-1.6.4-8.4.9-16.8 1.1-25.2.2-6 0-12.2 0-18.4 0-3.1 1-3.8 3.7-2.1 2.2 1.3 4.2 3 6.3 4.5 7.6 5.4 14.7 11.6 21.8 17.7l4 3c1.3.8 1.7 1.9 1.5 3.5l-12.8 2.5 8.5 16.8c-1.5 2.3-4.4 2.7-6.5 4.1-2.3 1.5-4.7 2.7-7.3 4.3l-1.7-3-5-11.4-2.2-3.9Zm10.6 14.4 8.5-5.2-2.2-4.8a35.1 35.1 0 0 0-6-10.5c-.6-.6-.8-1.6-1-2.4.7-.3 1.5-.8 2.4-1 3.2-.5 6.4-.8 9.6-2.3-3.3-3-6.3-5.8-9.5-8.4-3.2-2.7-6.4-5.4-9.8-7.7-3.4-2.2-6.1-5.5-10.2-7.5l-1 40 9-8.1 1.4 1.9 6 12.2c.6 1.4 1 2.8 2.8 3.8Z"
        fill="#212121" />
    <path fill-rule="evenodd" clip-rule="evenodd"
        d="M147.5 586.2c-1.8-1-2.1-2.4-2.8-3.8l-6-12.2c-.3-.7-1-1.3-1.5-2l-8.9 8.3 1-40.1c4.1 2 6.8 5.3 10.2 7.5 3.4 2.3 6.7 5 9.8 7.7 3.2 2.6 6.2 5.4 9.6 8.4-3.3 1.5-6.5 1.8-9.7 2.4-.8.1-1.6.6-2.5.9.4.8.5 1.8 1 2.4 2.7 3.2 4.7 6.7 6.1 10.5l2.2 4.8-8.5 5.2Z"
        fill="#AEABAB" />
    <path fill-rule="evenodd" clip-rule="evenodd"
        d="M545 270c1.1-2.3 2-4.4 3.2-6.3 2.3-3.6 5.3-6.5 9.9-6.7 5.8-.2 12.2 3.5 11.3 11.3-.7 6-3.3 11.2-6.7 16.2L552.1 300c-.8 1.2-1.5 2.5-2.4 3.7-.9 1.2-1.7 1.3-2.8.3l-18.6-16.7a24.7 24.7 0 0 1-8-13c-.6-3-.3-6 .6-9a8.4 8.4 0 0 1 5.9-5.5c4.9-1.5 9.2-.6 12.8 3.1 1.3 1.4 2.4 3 3.5 4.4l2 2.6h-.1Zm3.4 31 1-1.3 10.8-15.6c.8-1.1 1.7-2.3 2.4-3.6 2-4 4.1-8 4.3-12.5.1-4-1.8-6.6-5.6-7.6a9 9 0 0 0-10.3 4c-2 2.8-4 5.7-4.2 9.5 0 .4-.6 1.2-1 1.3-.5 0-1.1-.4-1.6-.8-.2-.1-.2-.5-.4-.8-1.4-2.3-2.7-4.7-4.3-6.9-1.9-2.7-4.5-4.5-8-4.7-5.3-.4-8.4 2.7-8.6 7.1a17.6 17.6 0 0 0 5.7 14.5c6.4 6 13.1 11.5 19.8 17.3Z"
        fill="#212121" />
    <path fill-rule="evenodd" clip-rule="evenodd"
        d="M548.4 301c-6.7-5.9-13.4-11.5-19.8-17.4-4.2-3.8-6-8.7-5.8-14.5.2-4.4 3.4-7.5 8.7-7.1 3.5.2 6 2 8 4.8 1.6 2.1 2.9 4.5 4.3 6.8.1.3.2.7.4.8.5.4 1 .9 1.5.8.5-.1 1.1-.8 1.1-1.3.2-3.8 2.2-6.7 4.2-9.6a9 9 0 0 1 10.3-3.9c3.8 1 5.7 3.6 5.6 7.6a29 29 0 0 1-4.3 12.5c-.7 1.3-1.6 2.5-2.4 3.7l-10.9 15.6-1 1.2Z"
        fill="#EB1118" />
    <path fill-rule="evenodd" clip-rule="evenodd"
        d="m195.9 436-2.8-1.3-4-2c-3.3-1.5-3.4-1.5-2.4-5 1.3-4.2 3-8.2 6.6-11 6.6-5.2 17.2-5 23 3.7 2.5 3.7 3.8 7.8 4 12.3.2 4.5-1.2 8.7-3.7 12.5-1.6 2.5-4.1 3.5-6.8 4l-4.4.6c-2.2.2-2.3.2-2.7 2.4-.5 2.2-.8 4.5-1.2 6.7-.4 2.3-1.2 2.7-3.5 2.4-2-.3-4-.3-6-.4-2-.2-2.4-.6-2-2.6l3-12.4.4-3.7c0-1 .7-1.4 1.7-1.6 2-.3 4-.5 6-1.1 3-.9 5.1-2.8 6-5.9.8-2.4-.2-5-2.4-6.2-1.9-1-4.1-.6-5.3 1.4-.8 1.5-1.5 3.1-1.8 4.7-.2 1.1-.6 1.9-1.7 2.6Zm-3.9 22.8c2.6 0 5 0 7.5.2l.6-2.8 1-5.7c.3-1.5 1.1-2.2 2.6-2.3l6-.9c2-.3 3.8-1 5-2.6a17 17 0 0 0 3.3-14.8c-.5-1.8-1.2-3.7-2-5.5a14 14 0 0 0-15.3-8.7c-2.8.5-5.5 1.5-7.4 3.8-1 1.3-2.2 2.6-3 4.1-1 2-2.3 4-2 6.2l7 3.3 1.4-3.9c.6-1.6 1.6-2.9 3-3.8 2-1.2 4-1.2 6 0 2.3 1.3 3.7 3.3 3.6 6-.2 4.9-3.6 9-8.3 10.2l-5.8 1-3.2 16.2ZM202.3 471.2c-1 5.8-6.5 8-11.7 5.3-2.7-1.4-3.8-3.7-3.7-6.6 0-2.7 1.1-5 3.4-6.3 3-1.5 6.2-1.6 9.2.3 3 2 3 4.8 2.8 7.3Zm-5-6.3c-1.4 0-2.7-.2-4-.1a5 5 0 0 0-4.5 3.8c-.5 2.4.5 5 2.5 6 1.8 1 3.8 1.2 5.9.7a4.6 4.6 0 0 0 3.6-4.8l-.2-1.7c-.2-1.7-1.7-3.5-3.3-3.9Z"
        fill="#212121" />
    <path fill-rule="evenodd" clip-rule="evenodd"
        d="m192 458.8 3.2-16.2 5.8-1c4.8-1.1 8.1-5.3 8.3-10.1.1-2.8-1.3-4.7-3.6-6.1-2-1.2-4-1.2-6 0a7.3 7.3 0 0 0-3 3.8l-1.5 4-7-3.4c-.2-2.3 1.2-4.2 2.1-6.1.8-1.6 2-2.9 3-4.2 1.9-2.3 4.6-3.3 7.4-3.8a14 14 0 0 1 15.4 8.7c.7 1.8 1.4 3.7 1.9 5.5a17 17 0 0 1-3.2 14.8c-1.3 1.7-3.1 2.3-5.1 2.6l-6 .9c-1.5.1-2.3.9-2.5 2.3l-1.1 5.7-.6 2.8-7.5-.2ZM197.3 465c1.6.3 3.1 2 3.3 3.8l.2 1.7c0 2.3-1.3 4.2-3.6 4.8-2 .5-4 .3-6-.7-1.8-1-2.9-3.6-2.3-6a5 5 0 0 1 4.4-3.8l4 .1Z"
        fill="#fff" />
    <path fill-rule="evenodd" clip-rule="evenodd"
        d="M592 219.1c-7.8 3.5-15.7 4-24 2.7-4.4-.7-8.4-2.7-11.9-5.6-1.6-1.4-2-2.9-1.7-5a41 41 0 0 1 11.7-21.2 39.4 39.4 0 0 1 21.1-11c9.6-1.1 19.1-.7 27.7 4.6 1.4 1 2.3 2.1 2.2 3.8-.2 2.4-.5 4.7-1 7-.7 3-1.6 6-3.3 8.7-3.3 5.4-8 9.2-13.4 12.3-2.4 1.3-5 2.5-7.5 3.7Zm22.3-31.4a26.2 26.2 0 0 0-12.3-5.1c-6.8-.6-13.7-1-20.3 1.4a39.2 39.2 0 0 0-20.1 17.3 27.3 27.3 0 0 0-4 11.5c4 3.6 6.1 4.8 10.5 5.4 3.5.5 7 .8 10.5.5a46.2 46.2 0 0 0 28-13.1 24 24 0 0 0 7.7-17.9Z"
        fill="#212121" />
    <path fill-rule="evenodd" clip-rule="evenodd"
        d="M614.3 187.7c-.2 7-2.6 13.2-7.7 17.9a46.3 46.3 0 0 1-28 13c-3.4.4-7 0-10.5-.4-4.4-.6-6.4-1.8-10.6-5.4.4-4 2-8 4-11.5 4.8-8 11.4-14 20.2-17.3a45 45 0 0 1 20.3-1.4c4.7.4 8.5 2.6 12.3 5.1Z"
        fill="#fff" />
    <path fill-rule="evenodd" clip-rule="evenodd"
        d="M591.7 213.5c-6 2.9-12.9 1.8-17-3.4-4-4.9-5.3-13.8 1.5-19.3 1-.8 1.7-2 2.7-2.7 3.9-2.8 9.7-2.8 13.7 0 3.7 2.6 6.5 5.7 7.1 10.5 1 6.3-1.6 12.5-8 14.9Zm-1.5-3.4c1.5-1.1 3.2-2 4.4-3.4 2.7-2.9 3-6.8 1.2-10.2-2.4-4.4-7-7.3-10.8-6.9-.2 0-.5 0-.7.2-3.2 1.7-6.6 3.3-8.3 6.8-1.8 3.4-1.1 8.8 1.6 11.2 3.4 3 7 4.4 12.6 2.3Z"
        fill="#212121" />
    <path fill-rule="evenodd" clip-rule="evenodd"
        d="M590.7 211.2c-6 2.3-10 .6-13.7-2.7-3-2.7-3.7-8.7-1.9-12.5 1.9-3.8 5.5-5.6 9-7.4.1-.2.4-.1.7-.2 4-.4 9.1 3 11.7 7.8 2 3.8 1.7 8.1-1 11.3-1.4 1.5-3.2 2.5-4.9 3.7Z"
        fill="#EB1118" />
    <path fill-rule="evenodd" clip-rule="evenodd"
        d="M587.8 205c-2.6 1-4.3.4-6-1-1.2-1.1-1.5-3.7-.7-5.3.9-1.6 2.4-2.4 4-3.2h.3c1.7-.3 4 1.1 5 3.1.9 1.6.7 3.5-.5 4.9-.6.6-1.4 1-2.1 1.5Z"
        fill="#212121" />
    <path fill-rule="evenodd" clip-rule="evenodd"
        d="M589.6 197.9c-2.7 1-4.4.3-6-1.1-1.2-1.1-1.5-3.7-.7-5.3.8-1.6 2.4-2.4 3.9-3.2h.3c1.8-.3 4 1.1 5.1 3.2.9 1.6.7 3.4-.5 4.8-.6.6-1.4 1-2.1 1.6Z"
        fill="#fff" />
    <path d="M311.5 184.4c-4.8-14.3-24-29.2-37.5-35.6" stroke="#212121" stroke-width="2.6"
        stroke-linecap="round" stroke-linejoin="round" />
    <path d="m275.3 161-3-14c4.9-1.7 10.4-.9 14.4 0M499.5 424.6c15-1.9 36-7 52.4-8.7" stroke="#212121"
        stroke-width="2.6" stroke-linecap="round" stroke-linejoin="round" />
    <path d="m543.4 409 12.8 6s-6.4 8-9.6 11.2M31.2 349.2c-7.1 14.4-6.4 36.1-4 52" stroke="#212121"
        stroke-width="2.6" stroke-linecap="round" stroke-linejoin="round" />
    <path d="M13.7 393.1c4.8 4.8 10.4 8 15.1 12 1.6-4.8 4-9.6 7.2-13.6" stroke="#212121" stroke-width="2.6"
        stroke-linecap="round" stroke-linejoin="round" />
    <path fill-rule="evenodd" clip-rule="evenodd"
        d="M285.2 556c-1.2-.6-2.3-.8-3-1.4-2.8-2.1-5.4-4.4-8.5-6.8l-6.3 4.9c-1.5 1-2.9 2.3-4.5 3.3a4.8 4.8 0 0 1-4.4.5c.9-5 2.9-9.7 4-14.7-2-1.4-3.9-2.6-5.7-4-1.1-.8-2.2-1.7-3.2-2.8-1.5-1.6-1.1-2.5 1.2-3 2.9-.4 5.8-1 8.7-1.2 2.4-.1 3.6-1.1 4.2-3.3.8-2.5 1.7-5 2.7-7.4.3-.7 1-1.2 1.6-1.8.5.6 1.2 1 1.5 1.8 1 2 1.7 4.3 2.7 6.3 1 2.3 1.7 2.5 4.1 2.1l8.8-1c.7 0 1.8.3 2.2.8.7.9-.1 1.5-.8 2.2-1.9 2-3.6 4.1-5.5 6-2.6 2.4-2.6 5-1.6 8 .7 2.2 1.3 4.4 1.8 6.7.3 1.3 0 2.8 0 4.7Z"
        fill="#212121" />
    <path d="M256 485.7c4.7-8 6.3-17.5 9.5-25.5 5.6 6.4 9.6 15.2 14.4 23.1" stroke="#212121" stroke-width="2.6"
        stroke-linecap="round" stroke-linejoin="round" />
    <path
        d="M252.7 477c8.8-1.6 18.4-.8 27.2-3.2M444.6 156.2c12-14.3 20 2.4 7.2 8.8 13.5-4.8 16 13.6 0 10.4M154.5 496.9c4.8 4 9.6 8 12.8 12.7"
        stroke="#212121" stroke-width="2.6" stroke-linecap="round" stroke-linejoin="round" />
    <path
        d="M168 496c-5.5 4-8.7 9.6-14.3 13.6M582.3 153.7c-20.8-4.7-1.6 18.4 0 0Zm0 0c1.6 4 6.4 5.6 8 8 9.5-16-17.8-29.5-25-11.2-7.2 16 9 20.8 22.6 18.4"
        stroke="#212121" stroke-width="2.6" stroke-linecap="round" stroke-linejoin="round" />
    <path fill-rule="evenodd" clip-rule="evenodd"
        d="M332.4 520a8 8 0 0 1-8 6c-3.7.2-7.3-.7-9.3-4.3-.4-.7-.8-1.5-.8-2.2 0-1.8-1-2.5-2.4-3-2-1-2-1.1-1.7-3.3l1.5-11.8a13 13 0 0 0 0-4c-.4-1.8.2-2.8 2-3.4-3.5-7.7-5.2-15.8-7-23.9-1.8-8.1-1.3-16 2-23.6 3.4-7.8 9.8-12 18.2-12.6 5.5-.4 11-.2 16.3 1.1 5.4 1.3 10 3.9 13.8 8a18 18 0 0 1 4.3 14 46 46 0 0 1-8 21.4l-11.1 17-2 2.7c1.2 1.4.8 3 .4 4.4l-4.4 14.7c-.6 2-1.5 3.2-3.8 2.8Zm4.7-21.8 4.8-7.2c3.5-5.2 7-10.3 10.3-15.7a41.9 41.9 0 0 0 6.4-16.7c.5-3.8.1-7.5-2-11a21.1 21.1 0 0 0-12.2-9c-6-2-12.2-2-18.4-1.7-6.9.3-14.6 6.9-16.1 13.7a36.6 36.6 0 0 0-1 17c1.3 5.7 2.5 11.5 4 17.2.6 2.5 1.8 4.8 2.8 7.2 1.2 2.6 3.2 3.7 6.2 3.9 4 .2 8 1 12 1.6l3.2.7Zm-.8 12.2c-4-.5-7.9-.8-11.6-1.6-3.7-.7-7.4-1.9-11.3-3l-.4 3.8a103 103 0 0 0 22.5 3l.8-2.2Zm-22.8-7c6.7 2.8 19.1 5 23.7 4.1l.6-2.1-24-3.5-.3 1.4Zm.7-6.2c-.4 1-.5 1.8.6 2.2 1 .4 2 .8 3 1l12.3 1.6 8.3 1.2.2-1.8c-8-3-16.2-2.6-24.4-4.2Zm-1.8 16.6a74.6 74.6 0 0 0 21.6 3.4l.5-2-21.8-3-.3.5v1.1Zm4 4.2c.2 3.2 1.6 4.5 5.7 5.4 3.7.8 6.2-.2 7.9-3.2-4.5-1.6-9-1.6-13.7-2.2Z"
        fill="#212121" />
    <path fill-rule="evenodd" clip-rule="evenodd"
        d="m337 498.2-3-.6c-4-.6-8-1.5-12.1-1.7-3-.2-5-1.2-6.2-4-1-2.3-2.2-4.6-2.8-7-1.5-5.8-2.7-11.5-4-17.3a37 37 0 0 1 1-17A19.4 19.4 0 0 1 326 437a52 52 0 0 1 18.4 1.7c5 1.6 9.4 4.4 12.3 9 2 3.5 2.4 7.2 1.9 11a41.9 41.9 0 0 1-6.4 16.8c-3.2 5.3-6.8 10.4-10.3 15.6l-4.8 7.2Z"
        fill="#EB1118" />
    <path fill-rule="evenodd" clip-rule="evenodd"
        d="m336.3 510.4-.8 2.1a102 102 0 0 1-22.5-3l.4-3.6c4 1 7.6 2.2 11.3 3 3.7.7 7.5 1 11.6 1.5ZM313.5 503.3l.3-1.4 24 3.5-.6 2.1c-4.6 1-17-1.3-23.7-4.2ZM314.2 497.2c8.2 1.6 16.5 1.2 24.4 4.2l-.2 1.8-8.3-1.2-12.3-1.6c-1-.2-2-.6-3-1-1.1-.4-1-1.2-.6-2.2ZM312.4 513.8v-1.1c0-.3.2-.5.3-.5l21.8 3-.5 2c-1.2.9-18-1.8-21.6-3.4ZM316.3 518c4.6.6 9.2.6 13.6 2.2-1.6 3-4 4-7.8 3.2-4.1-.9-5.5-2.2-5.8-5.4Z"
        fill="#fff" />
    <path
        d="M320.5 474.2c1.3 7.3 1.3 14.8 1.3 22.3 0 1 1.6 1 1.6 0 0-7.6 0-15.3-1.3-22.8-.2-1-1.7-.6-1.6.5ZM339.7 476.6a59.1 59.1 0 0 0-9.2 20.5c-.2 1 1.3 1.5 1.6.5a58 58 0 0 1 9-20.2c.6-.9-.8-1.7-1.4-.8Z"
        fill="#212121" />
    <path
        d="M320.6 474c1 2.6 5.2 3.8 7.3 1.7 1-1 .7-3.3-.6-4-1.8-.9-3 1.7-2.8 3 .4 4.3 6.8 4.3 9.3 2 1.2-1 1.6-3.6-.3-4.3-1.8-.6-3.2 1.4-2.9 3 .4 1.7 2.3 2.5 3.8 3 2 .4 4 .4 5.9-.7.8-.6 0-2-.9-1.4-1.7 1-4 .9-5.8 0-.6-.3-1.4-.7-1.4-1.5 0-.3.3-1 .7-.9.4 0 .3.8.2 1.1-.5 1-1.9 1.4-2.8 1.5-1 .2-2.3 0-3.3-.5-1-.7-1.2-1.9-.4-2.8 0 0 .1 0 0 0-.2 0 0 0 0 .2l.2.5c0 .3 0 .5-.2.7-1.2 1.1-4 .3-4.4-1-.4-1-2-.7-1.6.3Z"
        fill="#212121" />
    <path
        d="m336.6 444.9.4-.2 1-.3a10.8 10.8 0 0 1 4-.2 12.3 12.3 0 0 1 5.5 2 11.5 11.5 0 0 1 4.6 5.4l.5 1.8.3 1.8a19 19 0 0 1-.5 6l-.7 2.5c-.6 1.5-1.2 2.7-1.7 3.5l-.9 1.2-.1-1.4-.2-1.7-.1-2c0-.7 0-1.5-.2-2.4l-.2-2.5-.4-2.6-.3-1.2c0-.4-.2-.7-.3-1l-1-2-1.6-1.8-1.7-1.5a16.8 16.8 0 0 0-3.6-2.2l-1.4-.7-1.4-.5Z"
        fill="#fff" />
    <path fill-rule="evenodd" clip-rule="evenodd"
        d="M230.7 588.9a34 34 0 0 1 16 8.8 32.1 32.1 0 0 1 8 16.5c.5 1.7-.6 3-2.7 3.5-2 .5-2.6.2-3.4-2.1l-1.8-6.2c-3-8-10.8-14.9-21.3-15.3-4.3 4.9-9 9.6-10.8 16.4-1 4-.4 7.8.3 11.7.3 2.1-.8 3.4-2.9 3.5-1.7 0-2.8-.8-3.2-2.4a28.4 28.4 0 0 1 4.8-24.7c1.3-1.6 2.8-3.1 4.5-5l-4.6-1c-6.8-1.1-11.2-5.4-14.5-11.2a30 30 0 0 1-2.7-20.1c.6-3.9 1.1-7.8 3.1-11.3 1-1.8 2-3.5 3-5.6l-5.2-1.4c-5.9-1.6-11-4.4-13.3-10.5-2-5.5-3.6-11.3-5.3-17-.2-.6-.2-1.2-.2-1.8-.2-2.6.4-4 1.8-4 1.5 0 3.8 2 4 3.7.5 6 3 11.5 5 17 1.5 4.3 5 6.5 8.9 7.8 2 .6 4 .8 6 1.3 1.3.3 2.5-.1 3.6-1 3.4-2.9 7-5.5 10.3-8.3 2.7-2.3 3.8-5.4 4-9 .2-5.7-1.4-11.3-2.8-16.8-.1-.7-.3-1.4-.6-2-.5-1.4-.6-2.7.9-3.5 1.5-.7 2.7 0 3.9.9.3.3.6.8.7 1.2 2.2 7 4.4 14.2 3.8 21.8-.4 5.5-3 9.6-7.7 12.5-2.3 1.5-4.8 3-6.2 6l5 1.7a25.8 25.8 0 0 1 15.4 11.5 28 28 0 0 1 5 15c.1 6-2 11-5.7 15.5l-3.2 3.9Zm-21.5-43.4-3 5a33.3 33.3 0 0 0-2 27c2 5.6 5.7 8.8 11.5 10.1 4.8 1 8.6.5 11.6-3.7.5-.8 1.3-1.4 1.9-2.2 2-2.6 3.7-5.3 4-8.6 1-9.5-4-20.3-13.4-24-3.4-1.3-6.8-2.3-10.6-3.6Z"
        fill="#212121" />
    <path
        d="M184 517.2c2.9-1 6-1.5 9-2.4 3-1 6.2-2.3 9.3-3.5 6.1-2.4 12.5-4.5 19-6 1-.2.5-1.7-.5-1.5-6.4 1.4-12.8 3.6-19 6-3 1-5.9 2.4-9 3.3-3 1-6.2 1.4-9.3 2.5-1 .3-.6 2 .4 1.6ZM184.9 523.5c3.2-.2 6.1-1.4 9-2.6l9.8-3.7c3.2-1.3 6.2-2.6 9.5-3.5 3.2-1 6.5-1.7 9.7-3 1-.3.5-1.9-.5-1.5-3 1.1-6 1.9-9 2.7-3.3 1-6.4 2.2-9.5 3.4l-9.3 3.6c-3 1.2-6.3 2.7-9.7 3-1 0-1 1.6 0 1.6ZM187.2 528.5c6.6-.3 12.7-2.9 18.7-5.3s12.4-3.8 18.3-6.7c.9-.4 0-1.8-.9-1.4-5.6 2.8-12 4.2-17.8 6.6-5.9 2.3-12 4.9-18.3 5.1-1 0-1 1.7 0 1.7ZM189.5 534.4c3-.1 5.8-1 8.6-2l8.5-2.8 8.6-3c2.9-1 6-2.3 9-2.8 1.1-.2.7-1.8-.3-1.6a50 50 0 0 0-8.5 2.6l-8.6 3-8.5 2.9c-2.9 1-5.8 2-8.8 2-1 .1-1 1.8 0 1.7ZM193.9 539.6a62 62 0 0 0 14.3-4l6.5-2.7c2.1-.9 4-2.1 6.3-2.5 1-.2.6-1.8-.4-1.6-2 .4-4 1.4-5.8 2.3l-6.6 2.7a61.6 61.6 0 0 1-14.3 4.2c-1 .2-1 1.8 0 1.6ZM204.3 552.7c5-1.9 9.7-4 14.9-5.4 1-.3.6-1.8-.4-1.6-5.2 1.4-10 3.6-15 5.4-.9.4-.5 2 .5 1.6ZM202 560.1c3.8-.9 7.3-3 10.8-4.8 1.9-1 3.7-1.9 5.7-2.6 2-.8 4-1.6 6-2.7.9-.5 0-1.9-.8-1.4-3.7 2-7.7 3.2-11.4 5.1-3.6 2-6.9 4-10.8 4.8-1 .3-.6 1.8.4 1.6ZM201.2 566.3c5-1 9.8-3.3 14.5-5.5l7.4-3c2-.7 4.1-2 6.3-2.1 1-.1 1-1.8 0-1.7-2.2.3-4.2 1.3-6.2 2l-7 2.8c-5 2.3-10 4.8-15.5 5.9-1 .2-.6 1.8.5 1.6ZM201.6 574.5c5.8-1 11.4-3 16.9-5.2l8.2-3.2c2.5-1 4.7-2.6 7.3-3.3 1-.3.6-1.8-.4-1.6-2.6.7-4.8 2.4-7.3 3.4l-8.2 3.2c-5.5 2.1-11 4.1-17 5.1-1 .2-.5 1.8.5 1.6ZM204.5 582.1a163 163 0 0 0 16-5.9l7.8-3c2.6-1 5.1-2.5 7.8-3.2 1-.3.6-1.9-.4-1.6-2.7.8-5.2 2.2-7.8 3.2l-7.7 3c-5.3 2.2-10.6 4.3-16.1 6-1 .2-.6 1.8.4 1.5ZM209.2 587.8c2.3-.3 4.4-1.1 6.5-2 2.3-1 4.6-1.6 7-2.2 2.1-.6 4.3-1.2 6.4-2.1 1.5-.7 3.3-1.8 5-1.9 1 0 1-1.6 0-1.6-1.7.1-3.2.9-4.6 1.5-2 1-4.2 1.6-6.4 2.2-2.4.7-4.8 1.3-7 2.2-2.3.9-4.5 2-7 2.2-1 .1-1 1.8 0 1.7ZM217.9 602.7a65.1 65.1 0 0 0 18-7.2c.9-.5 0-2-.8-1.4-5.6 3-11.4 5.9-17.7 7-1 .2-.6 1.8.5 1.6ZM213.9 609.7c5.2-.9 10.2-3 15.1-4.9 4.6-1.7 9.7-2.8 14-5.3.8-.6 0-2-.9-1.4-4.3 2.5-9.4 3.6-14 5.4-4.6 1.8-9.6 3.8-14.7 4.7-1 .2-.5 1.7.5 1.6ZM212.4 616c6.2-1.6 12.2-3.8 18.1-6 5.6-2.1 11.5-3.8 17-6.3 1-.4 0-1.8-.8-1.4-5.6 2.6-11.5 4.2-17.2 6.3-5.7 2.2-11.5 4.3-17.5 5.9-1 .2-.6 1.8.4 1.5ZM212.6 621.7c6.3-1.2 12.6-3 18.8-4.6l18-4.9c1-.2.7-1.8-.4-1.5l-18 4.8c-6 1.6-12.5 3.4-18.9 4.6-1 .2-.6 1.8.5 1.6Z"
        fill="#212121" />
    <path
        d="M209 574.1c3.1 0 3.1-4.9 0-4.9-3.2 0-3.2 5 0 5ZM221.4 559.6c3 0 3.1-4.9 0-4.9-3.2 0-3.2 4.9 0 4.9ZM222.4 608.7c3.2 0 3.2-4.9 0-4.9-3.1 0-3.1 4.9 0 4.9ZM242.5 615.7c3.2 0 3.2-4.8 0-4.8-3.1 0-3.1 4.8 0 4.8ZM193.2 522.6c3.2 0 3.2-4.9 0-4.9-3.1 0-3.1 5 0 5ZM213.5 528.4c3.2 0 3.2-5 0-5-3.1 0-3.1 5 0 5ZM202.4 512c3 0 3.1-4.9 0-4.9-3.2 0-3.2 4.9 0 4.9ZM221.7 585c3.1 0 3.1-5 0-5-3.2 0-3.2 5 0 5ZM221.7 621c3.1 0 3.1-4.8 0-4.8-3.2 0-3.2 4.8 0 4.8Z"
        fill="#AEABAB" />
    <path
        d="M209.3 558.2c3.1 0 3.2-5 0-5-3.1 0-3.1 5 0 5ZM228 574.2c3.2 0 3.2-4.9 0-4.9-3 0-3 5 0 5ZM236.9 609.1c3.1 0 3.1-4.9 0-4.9-3.2 0-3.2 5 0 5ZM197.8 534c3.1 0 3.2-4.9 0-4.9-3.1 0-3.1 4.9 0 4.9ZM214.6 514.7c3.2 0 3.2-4.9 0-4.9-3.1 0-3.1 5 0 5Z"
        fill="#EB1118" />
    <path fill-rule="evenodd" clip-rule="evenodd"
        d="m115.3 494.5 7.2 15.2c.5 1 1 2.1 1.3 3.2.8 2 0 3.3-2 3.5-2.6.4-5.3.6-8 .8-9 .7-18 1.3-27.1 2.2-4 .5-8.1 0-12.2 0-2 0-2.3-.7-1.5-2.5 2.2-5.1 4.8-10.2 6-15.7l2-6c-.2-.1-.4-.4-.5-.3-2.8.5-5.6 0-8.4.1-4 0-8 .6-12.1.8l-9.3.4c-1.6 0-2-1-2.2-2.1v-4.3c-.1-4-.4-8-.6-11.9l-.5-14.8c-.2-5.8-.5-11.6-.4-17.4 0-7.4.2-14.7.4-22l.2-1.1c2.8-1.1 5.6-.7 8.4-1l17.7-1.3c9.7-.6 19.4-1.5 29.1-1.3 4.4 0 8.8-.5 13.2-.7l14-.7 8.8-.5 2.6-.2c2.6 0 5.1 0 7.7-.2 2.7-.2 4 1 4.1 3.7.2 7.1.5 14.2.5 21.4 0 7-.2 14.1-.4 21.1v7.4c0 4.8.2 9.6.3 14.3v4.8c0 1.2-.6 2-1.8 2.3-1.2.3-2.4.6-3.6.6-3.6.3-7.2.4-10.9.6H136c-3.6.5-7.3 1-11 1.3-2.3.1-4.7-.2-7-.2-.8 0-1.6.2-2.7.4Zm35.1-75.2H147l-5.3.2c-.6 0-1.2-.2-1.8-.1-4.3.4-8.6.8-13 .4-1.2 0-2.4.3-3.6.4l-3.4.2c-1.4 0-2.9-.2-4.2 0-2 .4-4 .6-6 .5-2.3 0-4.6.5-6.8.4-9.4-.2-18.7.6-28 1.4L57.5 424l-7.8.6c-1.9 23 .3 45.8 1.1 69h2.8c8.8 0 17.6-1.4 26.4-.8h1c2.6-.2 5-.4 7.5-.4 4.6 0 9.2.3 13.8.2 6.8-.1 13.6-.5 20.4-.8a283 283 0 0 0 17.7-1.2l10.4-1c.1-23.5 1-46.8-.5-70.3ZM76.1 517l2 .1 11-.7c3.6-.3 7.1-.3 10.6-.8 6.4-1 12.7-2 19.2-2l2-.1c-.6-1-1-1.9-1.3-2.7-1.7-3.6-3.5-7.2-5-11-2.5-5.7-2.4-5.4-8.8-5.1h-.5l-6.6.3-14.6-.4-8 22.4Z"
        fill="#212121" />
    <path fill-rule="evenodd" clip-rule="evenodd"
        d="M150.4 419.3c1.6 23.6.6 46.8.6 70.4l-10.5 1-10.3.7-7.4.4c-6.8.3-13.6.7-20.4.8-4.6.2-9.2-.1-13.8-.1l-7.4.2-1 .1c-8.9-.5-17.7.8-26.5.7h-2.8c-.8-23-3-45.8-1.1-68.9l7.8-.6 17.2-1.3c9.3-.7 18.6-1.5 28-1.3 2.3 0 4.5-.5 6.8-.5 2 .1 4 0 6-.4 1.4-.3 2.8 0 4.2 0l3.4-.3c1.2-.1 2.4-.5 3.6-.4 4.4.4 8.7 0 13-.4h10.6Z"
        fill="#AEABAB" />
    <path fill-rule="evenodd" clip-rule="evenodd"
        d="M141.4 428.4c1.3 17.8.5 35.3.4 53a1278.5 1278.5 0 0 1-23.1 1.7c-5.6.2-11.1.5-16.7.6l-11.3-.1-6 .2h-1c-7.2-.4-14.4.6-21.6.6h-2.3c-.7-17.4-2.5-34.6-1-52l6.5-.5 14-1c7.7-.5 15.3-1.1 23-1 1.9.1 3.8-.3 5.6-.3 1.7.1 3.3 0 5-.3 1-.2 2.2 0 3.4 0l2.7-.2 3-.3c3.6.3 7.1 0 10.7-.3h8.8-.1Z"
        fill="#212121" />
    <path fill-rule="evenodd" clip-rule="evenodd"
        d="m76.1 517 8-22.4 14.6.4 6.6-.2.5-.1c6.4-.3 6.4-.6 8.7 5.1 1.6 3.8 3.4 7.4 5.1 11l1.2 2.7-1.9.1c-6.4 0-12.8 1-19.2 2-3.4.5-7 .6-10.5.8l-11 .7-2-.1Z"
        fill="#AEABAB" />
    <path d="M99.3 427.1c2 0 2-3.2 0-3.2-2.1 0-2.1 3.3 0 3.3Z" fill="#212121" />
    <path
        d="m108.5 437.9 1.8-.8a49.4 49.4 0 0 1 11.7-3h4.3c1.5.2 3.2.6 4.8 1.6 1.6 1 2.8 2.6 3.4 4.1.7 1.5 1 3 1.2 4.4a31.9 31.9 0 0 1-1 12.1l-.5 1.8-.6-1.8-1-4.8-.7-3.1a54 54 0 0 0-2-6.4c-.4-.9-1-1.5-1.6-2-.7-.4-1.6-.7-2.7-.9l-3.5-.4-6.7-.2-5-.4-1.9-.2Z"
        fill="#fff" />
    <path fill-rule="evenodd" clip-rule="evenodd"
        d="M28.5 277.6c2.7-1.2 5.4-2.5 8.1-3.5 1.5-.5 3.2-.9 4.8-.9 3.3 0 6.6.6 9.8 1.5 3.5 1 7 2 10 4l5.5 4.3 2.4 2.3 2.1-1c1.2-.4 2.4-1 3.6-1.2 1.7-.3 3.4-.6 5-.6 3 0 5.8.9 7.4 3.5 1.6 2.8 1.4 5.6-.2 8.5-2 3.5-5.2 5.4-8.5 7.4l-1.9 1c0 2.7.3 5 0 7.3a31 31 0 0 1-6.4 16.8A32.8 32.8 0 0 1 52 338c-10 2.1-19.4.1-27.9-5.5-2.3-1.5-4.3-3.7-6.7-5.8l-2.9.6c-2 .6-4 .6-6 .1-4.3-1-7.1-3.8-8.3-8.1a5.6 5.6 0 0 1 1-5c1.6-2.4 4-3.7 6.5-5.2l3.2-1.6 1.3-7.3a30.3 30.3 0 0 1 12.3-19.8l3.4-2.7.6-.1Zm-11.2 44 9.5-3.3c1.5-.5 2.9-1.2 4.3-1.8 4.8-1.9 9.6-3.7 14.3-5.7a777 777 0 0 0 18.3-8c3-1.4 5.9-3 9-4.6l-1.1-3.5A25 25 0 0 0 61 281.1c-4.5-3-9.6-4.3-14.8-5.3-3.7-.8-7.2-.4-10.8 1-5.9 2.1-10.9 5.4-15 10.2a32.6 32.6 0 0 0-6.9 17.9c-.5 4.5.8 8.8 2.3 13 .3 1.1 1 2.2 1.5 3.6Zm3 4.4c1.8 1.5 3 2.9 4.5 4 7.4 4.9 15.4 7.4 24.3 6.2A31.4 31.4 0 0 0 69.2 325c3.5-4.3 4.8-9.4 5.5-14.7.2-1.9 0-3.8 0-6.1A278 278 0 0 1 20.2 326ZM74.7 297l5.1-3 1.8-1.5c.7-.9 1.5-1.8 2-2.8a2 2 0 0 0-2-2.8c-3.3 0-6.7.2-9.8 2l2.9 8v.1Zm-59.8 25.3-3.2-9.6c-2.9.6-4.6 2.4-6 4.5-.7 1-.3 2.5.6 3.4 1 1 2.4 1.6 3.8 1.7H15Z"
        fill="#212121" />
    <path fill-rule="evenodd" clip-rule="evenodd"
        d="m17.3 321.5-1.5-3.6a29.5 29.5 0 0 1-2.3-13c.8-6.5 2.5-12.7 7-18 4-4.7 9-8 15-10.1 3.5-1.4 7-1.8 10.7-1 5.2 1 10.3 2.3 14.8 5.3a25 25 0 0 1 10.6 13.6l1.1 3.5c-3.1 1.6-6 3.2-9 4.6-6 2.7-12.1 5.4-18.3 8-4.7 2-9.5 3.8-14.3 5.7-1.4.6-2.8 1.3-4.3 1.8l-9.5 3.2ZM20.3 326A278 278 0 0 0 74.6 304c0 2.3.3 4.2 0 6a28.3 28.3 0 0 1-8 17.7c-5 4.6-10.8 7.6-17.5 8.4-8.9 1.2-17-1.3-24.3-6.3-1.4-1-2.7-2.4-4.4-4Z"
        fill="#EB1118" />
    <path
        d="M53.7 276.4a46.3 46.3 0 0 1-20.5 12.4c-1 .2-.6 1.8.5 1.5 8-2 15.4-7 21.2-12.8.7-.7-.5-1.9-1.2-1.1ZM64.9 283.7A50.4 50.4 0 0 1 47 297.5a105 105 0 0 1-10.5 4.8c-2 .8-4.1 1.5-6.2 2-2.2.4-4.3.3-6.4.7-1 .2-.6 1.8.4 1.6 2.2-.5 4.5-.3 6.7-.8a111.3 111.3 0 0 0 17.3-7c6.7-3.7 13.3-8 17.9-14.3.6-.8-.8-1.6-1.4-.8ZM74.6 309.6c-1.5 2.4-4 4.1-6 6-2.5 2-5.2 3.9-8 5.5a91 91 0 0 1-18.5 7.5c-1 .4-.5 2 .5 1.6 6.7-2 13.2-4.4 19.3-8 2.7-1.6 5.4-3.5 7.8-5.5 2.3-2 4.7-3.8 6.3-6.3.6-.8-.8-1.7-1.4-.8ZM14 298.2c5.4 0 11 .5 16.4-.3 5.2-.8 9.8-3.2 14.6-5.2.9-.4.5-2-.5-1.6-4.5 2-9 4.2-14 5.1-5.4 1-11 .3-16.6.3-1 0-1 1.7 0 1.7ZM13.8 314.7c5.4.1 10.8-.3 16-1.8 5.3-1.4 10.2-4.4 15.3-6.5 1-.4.6-2-.4-1.6-5 2-9.5 5-14.8 6.4-5.2 1.5-10.6 2-16.1 1.9-1 0-1 1.6 0 1.6ZM22.8 330c4.7-.6 9.3-1.7 13.8-3.1 4.4-1.5 8.7-3.1 12.3-5.9.8-.6 0-2-.8-1.4a40.4 40.4 0 0 1-12 5.7 74.6 74.6 0 0 1-13.3 3.1c-1 .1-1 1.8 0 1.6ZM21.2 285.4c6.1 1.5 13.3 0 18.6-3.3.9-.6 0-2-.8-1.4-5 3.1-11.6 4.6-17.4 3.2-1-.3-1.5 1.3-.4 1.5Z"
        fill="#212121" />
    <path fill-rule="evenodd" clip-rule="evenodd"
        d="M47.6 175.6c-1.7-.8-3.7-.5-4-2.5-.4-2.5-1-5 .6-7.3.5-.8 1.9-1.3 3-1.4 8.4-.4 16.9-1.8 25.4-1.2 1 .1 2.1.3 3.1.6.5.1 1.1.6 1.4 1 2.2 3.9 1 8-3 10.2l1 11.3c.2 3.4.6 6.8 1.1 10.2.3 1.6.7 3.3 1.5 4.7 2.7 4.7 5.6 9.2 8.4 13.8l18.4 30c2.1 3.6 1.4 6.2-2.4 7.8-1.6.6-3.4 1.2-5 1.3-8.2.5-16.2 1.7-24.3 1.5-10.3-.2-20.6.4-30.8.5H24.5c-4.4-.1-6.6-3.1-5.4-7.4.8-2.5 2-5 3.4-7.3 4.3-7 8.8-13.8 13.3-20.7l11.4-17a7 7 0 0 0 1.4-4.4l-.7-21-.3-2.7Zm2.8 0-.2 1c.2 7.7.4 15.4.8 23.1a7 7 0 0 1-1.3 4.6c-5.6 8.3-11.3 16.7-16.8 25.1-2.2 3.4-4.2 7-6.3 10.4-1.4 2.5-3 4.9-4.3 7.5-2 4.2-1 5.8 3.7 5.9l18.7-.1c9.4-.2 18.7-.6 28-.5 8.4.2 16.7-.7 25-1.5 1-.1 2-.3 3-.7 2.3-.7 2.8-2.1 1.6-4.2l-19.5-31.8c-2.5-4-4.6-8.2-7.2-12-1.3-2-2-4-2.1-6.1L72.2 181l-.7-6c-7.1.1-14 .3-21 .6Zm24.2-9.5a99.7 99.7 0 0 0-28.4 1c-.7 2-.6 3.8.3 6 8.9 0 17.7.4 26.5-.7 2-.3 2.6-1.4 2.3-3.4l-.7-2.9Z"
        fill="#212121" />
    <path fill-rule="evenodd" clip-rule="evenodd"
        d="m50.4 175.7 21.1-.7.7 6 1.3 15.3c.2 2.2.8 4.1 2 6 2.7 4 4.8 8 7.3 12 6.4 10.7 13 21.3 19.5 32 1.2 2 .8 3.4-1.6 4.1-1 .4-2 .6-3 .7-8.3.8-16.6 1.7-25 1.5-9.3 0-18.6.3-28 .5-6.2 0-12.5.2-18.7 0-4.6 0-5.7-1.6-3.7-5.8 1.2-2.6 2.9-5 4.3-7.5 2.1-3.5 4-7 6.3-10.4 5.5-8.4 11.2-16.8 16.8-25a7 7 0 0 0 1.3-4.7c-.4-7.7-.6-15.4-.8-23l.2-1ZM74.6 166.1l.7 3c.3 2-.3 3-2.3 3.3-8.8 1-17.6.6-26.5.6-.9-2-1-4-.3-5.8 6.2-1.6 24-2.3 28.4-1Z"
        fill="#fff" />
    <path
        d="M64.2 181c3 0 6.1 0 9.1-.4.5 0 .7-.6.6-1-.1-.5-.6-.6-1-.6-2.9.4-5.8.3-8.7.4-1 0-1 1.7 0 1.7ZM64.4 188.1c3 0 5.9-.3 8.8-.3 1 0 1-1.6 0-1.6-3 0-5.8.3-8.8.3-1 0-1 1.6 0 1.6ZM65 196c3.2.4 6.2-.5 9.3-.4 1 0 1-1.6 0-1.6-3-.1-5.9.9-8.8.4-.4 0-.9.2-1 .6 0 .4.1 1 .6 1ZM69 192.2l4.8-.2c.4 0 .8-.3.8-.8 0-.4-.4-.8-.8-.8l-4.8.2c-.4 0-.8.4-.8.8 0 .5.3.9.8.8ZM68.8 184.3h4.5c.5-.1.9-.4.8-.9 0-.4-.3-.8-.8-.8-1.5.1-3 .2-4.5.1-.5 0-.9.4-.8.8 0 .5.3.8.8.8Z"
        fill="#212121" />
    <path fill-rule="evenodd" clip-rule="evenodd"
        d="M74.5 208.3s2.5 5.3 4.5 8.6L95 243c1 1.7.7 2.9-1.2 3.5-.8.3-1.7.4-2.5.5-6.8.7-13.6 1.4-20.4 1.3-7.7-.1-15.4.3-23 .4H32.5c-3.8 0-4.6-1.3-3-4.8 1-2 2.3-4 3.6-6.1l5-8.5A1451 1451 0 0 1 52 208.7"
        fill="#212121" />
    <path
        d="M56 224c4.2 0 4.2-6.4 0-6.4s-4.2 6.5 0 6.5ZM82.7 241.3c4.2 0 4.2-6.5 0-6.5s-4.2 6.5 0 6.5ZM44.6 244.4c2.5 0 5-2.2 4.9-4.8a5 5 0 0 0-5-5c-2.5 0-5 2.3-4.8 5a5 5 0 0 0 4.9 4.8ZM72.5 225.8c2.5 0 5-2.2 4.8-4.9a5 5 0 0 0-4.8-4.9c-2.6 0-5 2.3-5 5a5 5 0 0 0 5 4.8ZM64.4 238.2c5.3 0 5.3-8.1 0-8.1-5.2 0-5.2 8.1 0 8.1Z"
        fill="#fff" />
    <path fill-rule="evenodd" clip-rule="evenodd"
        d="M123.6 265.3c2-4.8 11.5-25.5 13.8-30.2a31.8 31.8 0 0 0 19.5 1.6c1.6-.3 3.2-.6 4.5-1.4 4-2.5 8-5.2 11.9-8 1.5-1 1.4-2-.2-3a33.2 33.2 0 0 0-13.9-5 21 21 0 0 0-13.8 2.6l-3.6 2.5c2.2-6.2 5.7-11 8-16.3l.5-.3h.8c3.7.2 7.1-.7 10.3-2.8a46.7 46.7 0 0 0 16-20c.2-.4 0-1 .1-1.5-4-1-7.9-1-11.7-.2-7.3 1.6-12.8 6-17.2 12a12.3 12.3 0 0 0-2.6 7.4c0 3.9-2.1 7-4.3 10.2-.8-2.5-1.3-4.7-2.1-6.8a32.5 32.5 0 0 0-8-10.9c-1.5-1.6-3.3-3.1-4.8-4.8-1.6-1.7-2.7-1.7-3.4.5-.9 2.5-1.7 5-2 7.6a19 19 0 0 0 1.6 11.2c2.5 4.6 5.5 8.8 10.9 10.7 1.2.5 2.2 1.3 3.4 2l-4.7 11.5-.5-1.5c-2-7.8-6.7-13.7-12.7-18.8-1.4-1.2-3-2.2-4.5-3.3-2-1.3-3.2-.7-3.5 1.7 0 1.2-.2 2.3-.3 3.5-.3 4.1-.2 8.2 1.7 12.1 2.3 4.6 5.1 8.7 9.7 11.4l6.5 3.7-9.8 21.2m35.5-42.5a29.8 29.8 0 0 1 16.1 4.3l.3.5c-8 8.8-22.2 12.3-33 6.4 3.8-6.6 9-10.9 16.6-11.2ZM125 192l3.5 3.1a40 40 0 0 1 8.8 11c1.8 3.6 2.1 7.3 2 11.1 0 .9-.5 1.7-.8 2.7-13.6-3.8-17.7-17-13.5-27.9Zm24.4 5.6c3.8-6 9.2-10 15.9-12 2.2-.8 7.1-.8 9.4 0-1.4 4.3-4 8-7 11.5a28.1 28.1 0 0 1-8.1 6.8 20 20 0 0 1-5 1.7c-2 .4-4 .6-5.4-1.6-.2-.3-.7-.4-1-.6-.7-2.2.1-4.1 1.2-5.8ZM130 240c-13-4.7-18.8-15-16.4-27.2 10 5 18.8 18.2 16.4 27.2Z"
        fill="#212121" />
    <path fill-rule="evenodd" clip-rule="evenodd"
        d="M138 232.6c3.9-6.6 9-10.9 16.7-11.2a29.8 29.8 0 0 1 16.1 4.3c.2.1.2.3.3.5-8 8.8-22.2 12.3-33 6.4ZM174.8 185.5c-1.5 4.4-4 8.2-7.2 11.6a28.2 28.2 0 0 1-8 6.7 20 20 0 0 1-5 1.8c-2 .4-4 .5-5.4-1.6-.2-.3-.7-.4-1-.6-.7-2.3.1-4.1 1.2-5.9 3.8-6 9.2-9.9 15.9-12 2.2-.7 7.1-.7 9.4 0ZM138.5 219.8c-13.6-3.8-17.7-17-13.5-27.8l3.5 3.1a40 40 0 0 1 8.8 11c1.8 3.6 2.1 7.3 2 11.1 0 .9-.5 1.7-.8 2.6ZM130 240c-13-4.7-18.8-15-16.4-27.2 10 4.9 18.8 18.1 16.5 27.2Z"
        fill="#AEABAB" />
    <path
        d="M120.8 226.6c3.2 4.9 6.8 9.5 10 14.4.5.9 2 0 1.4-.8-3.2-5-6.8-9.6-10-14.4-.6-.9-2 0-1.4.8ZM129.5 204.9c2.8 5.7 8 10.2 9.5 16.5.3 1 1.8.6 1.6-.4-1.6-6.5-6.8-11-9.6-17-.5-.9-2 0-1.5.9ZM157.7 226.8c-3.8.2-7.4 1.4-11 2.4-1.8.5-3.5.9-5.2 1.5-1.7.7-3.3 1.3-5 1.7-1 .3-.7 1.9.4 1.6 1.6-.4 3.1-1 4.7-1.6l5.1-1.5c3.7-1 7.2-2.3 11-2.5 1 0 1-1.7 0-1.6ZM162 192.3a20 20 0 0 0-8.4 6l-3.4 4a23.6 23.6 0 0 0-3.3 4.6c-.5 1 1 1.8 1.4.8.8-1.5 1.9-2.9 3-4.2l3.3-3.8c2.1-2.4 4.6-4.8 7.7-5.8 1-.3.6-1.9-.4-1.6Z"
        fill="#212121" />
    <path fill-rule="evenodd" clip-rule="evenodd"
        d="M190.6 149.6h-5.7c-7.4.4-15 .6-22.4 1.2-8.7.7-17.5 1-26.2 2.8-4 .8-8.1 1-12.2 1.4l-5.5.7c-1-1.4-1-2.8-.8-4.2 1.5-12.1 1-24.3 1-36.5 0-6.6-.2-13.2-.6-19.7-.5-7-1.3-14-1.9-20.9l-1-10.7c-.2-2.5.4-3.4 3-4 2.4-.6 4.8-1 7.3-1.2 4.5-.4 9-.4 13.5-.7l25-1.6c4.5-.2 8.8-.4 13.2-.8 1.6 0 3.2-.4 4.8-.6 2.6-.3 2.6-.3 2.9 2.2.7 6.4 1.7 12.8 2.2 19.3.5 6.9.6 13.8.8 20.6l1 24v9l.1 13.7c0 1.5-.3 3.2 1.3 4.4.3.2.1 1 .2 1.6Zm-4-2.5c.2-2.4.5-4.6.4-6.8l-.8-24.5c-.6-14.4-.2-28.9-1.8-43.3-.4-4.3-1-8.5-1.5-12.8-.3-1.8-1-2.4-2.4-2.3-4.7.2-9.4.4-14 .8-3.6.2-7.1.7-10.7 1l-16.7 1-14.3.7c-2.4.2-4.7.8-6.8 1.2 1 10.5 2.1 20.6 2.7 30.7.5 10 .5 20.1.5 30.2 0 10.1-.4 20.2-.6 30.5 11-1.3 22-2.8 32.8-3.8 11-1 22-1.7 33.3-2.6Z"
        fill="#212121" />
    <path fill-rule="evenodd" clip-rule="evenodd"
        d="M186.6 147.1c-11.2.9-22.2 1.5-33.2 2.6-11 1-21.8 2.5-32.8 3.8l.6-30.5c0-10 0-20.1-.6-30.2-.5-10.1-1.7-20.2-2.7-30.7 2.2-.4 4.5-1 6.8-1.2l14.4-.7 16.6-1c3.6-.2 7.2-.7 10.8-1l14-.8c1.5 0 2 .5 2.3 2.4.6 4.2 1.2 8.5 1.6 12.7 1.5 14.4 1.1 28.9 1.7 43.3l.9 24.6c0 2.1-.3 4.3-.4 6.7Z"
        fill="#fff" />
    <path fill-rule="evenodd" clip-rule="evenodd"
        d="M200.6 157.4c-7.5.4-15 .6-22.5 1.2-8.7.8-17.5 1-26.2 2.8-4 .8-8 1-12.1 1.4l-5.6.7c-1-1.4-1-2.8-.8-4.2 1.5-12.1 1-24.3 1-36.5 0-6.6-.2-13.2-.6-19.7-.4-7-1.2-14-1.9-20.9l-1-10.7c-.2-2.5.4-3.4 3-4 2.4-.6 4.9-1 7.3-1.2 4.5-.4 9-.4 13.5-.7l25-1.6c4.5-.2 8.9-.4 13.2-.8 1.6 0 3.2-.4 4.8-.6 2.6-.3 2.6-.3 3 2.2.7 6.4 1.6 12.8 2 19.3.6 6.9.7 13.8 1 20.6l.9 24v9l.1 13.7c0 1.5 1.4 5.8-4.1 6Zm1.7-2.5c.1-2.4.4-4.6.3-6.7l-.8-24.6c-.6-14.4-.2-28.9-1.7-43.3l-1.6-12.8c-.3-1.8-.9-2.4-2.4-2.3l-14 .8c-3.6.2-7.1.7-10.7 1l-16.7 1-14.3.7c-2.4.2-4.6.8-6.8 1.2 1 10.5 2.1 20.6 2.7 30.7.5 10 .6 20.1.5 30.2 0 10.1-.4 20.2-.6 30.5 11-1.3 22-2.8 32.8-3.8 11-1 22-1.7 33.3-2.6Z"
        fill="#212121" />
    <path fill-rule="evenodd" clip-rule="evenodd"
        d="M202.3 155c-11.3.8-22.3 1.4-33.3 2.5-10.9 1-21.7 2.5-32.8 3.8.2-10.3.6-20.4.6-30.5 0-10 0-20.1-.6-30.2-.5-10-1.7-20.2-2.7-30.7 2.2-.4 4.5-1 6.9-1.2l14.3-.7 16.7-1c3.5-.2 7.1-.7 10.7-1l14-.8c1.5 0 2.1.5 2.4 2.4.6 4.2 1 8.5 1.5 12.7 1.5 14.4 1.2 28.9 1.7 43.4.4 8.1.7 16.3.9 24.5 0 2.1-.2 4.3-.4 6.7Z"
        fill="#fff" />
    <path fill-rule="evenodd" clip-rule="evenodd"
        d="M178 125.7c-.2 2.6.2 6.2.3 8.8.3 2.8.3 5.5.4 8.4 0 .8-.4 5.4.3 6.1.7 1.1 4.6-.2 5.8-.4 2.8-.3 6 .1 8.6-.5 1.5-.4 1.4 0 1.6-1.9V140c.1-3.9.4-7.7.4-11.6 0-2.8.6-3.3-2.4-3.3-5.1 0-10.1.6-15 .6Z"
        fill="#AEABAB" />
    <path
        d="M145 84.3c7.1-2.2 14.7-2.6 22.2-3.3 3.7-.4 7.5-.8 11.2-.9h12.2c1 0 1-1.7 0-1.7l-12.2.1c-4 0-7.9.6-11.8 1-7.4.6-15 1-22.1 3.3-1 .3-.6 1.9.4 1.5ZM146.2 93.3c15-.6 29.8-3.1 44.7-3.2 1 0 1-1.6 0-1.6-15 0-29.8 2.6-44.7 3.1-1 0-1 1.7 0 1.7ZM146.8 104c14.6-3 29.5-4.2 44.3-4.2 1 0 1-1.7 0-1.7-15 0-30 1.3-44.8 4.3-1 .2-.6 1.8.4 1.6ZM147.8 112.9c7.5.4 14.7-1.7 22-2.9 7.7-1.3 15.7-.7 23.5-.7 1 0 1-1.6 0-1.6-7.6 0-15.3-.6-22.8.6-7.5 1.1-15 3.4-22.7 3-1-.1-1 1.5 0 1.6ZM148.3 121.8c7.5-1.2 15-1.4 22.6-1.7 7.6-.3 15.2-.8 22.7-1.3 1 0 1-1.6 0-1.6-7.7.5-15.5 1-23.3 1.3-7.8.3-15 .6-22.5 1.8-1 .2-.6 1.7.5 1.6ZM148.3 131.4c7.7-.6 15.4 0 23-1.1 1.1-.1.7-1.7-.3-1.6-7.5 1-15.2.5-22.7 1-1 .2-1 1.8 0 1.7ZM148 139.4c8 0 15.8 0 23.7-.3 1 0 1-1.6 0-1.6-7.9.3-15.7.3-23.6.3-1 0-1 1.6 0 1.6ZM149.4 149.3c8-.2 15.9-.9 23.8-.9 1 0 1-1.6 0-1.6-8 0-15.9.6-23.8.9-1 0-1 1.6 0 1.6Z"
        fill="#212121" />
    <path fill-rule="evenodd" clip-rule="evenodd"
        d="M63.6 384.6c-1.1-1-2-1.6-2.8-2.2-4.2-3-7.8-6.7-11-10.7a12.5 12.5 0 0 1-2.8-5.8 3 3 0 0 1 3-3.6c1.4 0 2.6.4 4 .6l.1-.5c-.2-4 4.2-5 6.7-3.8l3.3 1.9V357c.5-3.3 3-4.5 5.8-2.7 1.6 1.1 3 2.6 4.4 4l2.4 2c0-1.2-.2-2.2 0-3.3.5-2.6 2.8-3.8 5.2-2.5 1.2.6 2.2 1.5 3 2.5A67.6 67.6 0 0 1 97 378c.8 2.1 1 4.5 1.2 6.8.2 2.2-.5 4.1-1.8 5.9-1 1.5-2.1 3.2-3.3 4.6a14.3 14.3 0 0 1-7 4.6 26.8 26.8 0 0 1-21.5-2.5c-2-1-4.1-2.1-6-3.6a15.4 15.4 0 0 1-3.5-4.3c-1.1-2-.5-3 1.6-3.7 1-.3 2.1-.5 3.2-.6l3.8-.5Zm6-7.8c-1 .8-1.6.1-2.2-.4-1.3-1-2.5-2.2-3.7-3.3-3-2.8-6-5.6-9.6-7.6-1-.5-2-1-3-1.2-1.5-.3-2.4.6-1.9 2 .5 1.6 1.2 3.1 2.2 4.4 2.5 3.3 5.4 6.3 8.8 8.8l7.6 5.7c.4.3.5.9.8 1.3-.5.2-1 .5-1.5.5h-1.5c-3-.3-6 0-9 .9a7.3 7.3 0 0 0 3 4c1.8 1.2 3.6 2.3 5.5 3.3a25.4 25.4 0 0 0 20.5 2.3 11 11 0 0 0 6.1-4.4l1.1-1.4c3.5-3.4 4-7.6 2.5-12-1-3.1-2.4-6.3-4-9.3a54.2 54.2 0 0 0-8-12.2c-1-1.1-2.2-2.7-3.8-1.8-1.5 1-1.2 2.8-.5 4.3l2.9 5.5c.2.4 0 1.2-.2 1.4-.3.3-1 .4-1.6.3-.3 0-.6-.5-.8-.8-2.3-2.8-4.6-5.6-7-8.2-1-1.1-2.1-2-3.4-2.9-1.4-.8-2.4-.3-2.7 1.3a4 4 0 0 0 0 2.2c.7 1.6 1.5 3.3 2.5 4.8l6 7.2c.4.5.8 1 .9 1.5.2.8-.7 1.3-1.3 1a4 4 0 0 1-1-1 66.3 66.3 0 0 0-11.8-11.7c-.8-.6-2-1-3.2-1-1.8 0-2.5 1.7-1.5 3.2.4.7 1 1.3 1.6 1.9l9.1 8.5c.9.8 2.1 1.5 2 3Z"
        fill="#212121" />
    <path fill-rule="evenodd" clip-rule="evenodd"
        d="M69.6 376.8c0-1.5-1.2-2.1-2-3l-9.2-8.4c-.6-.6-1.2-1.2-1.6-1.9-1-1.5-.3-3.2 1.5-3.2 1.1 0 2.4.4 3.3 1 2.2 1.8 4.3 3.6 6.3 5.6 2 2 3.7 4.1 5.5 6.2l1 .8c.5.4 1.4-.2 1.2-.9-.1-.5-.4-1-.8-1.5-2-2.4-4.2-4.7-6-7.2-1.1-1.5-1.9-3.2-2.6-4.8a4 4 0 0 1 0-2.3c.3-1.5 1.4-2 2.7-1.2 1.3.8 2.5 1.8 3.5 2.9l6.9 8.1c.3.4.5.8.9.9.5 0 1.2 0 1.5-.3.3-.2.4-1 .2-1.4l-2.9-5.5c-.7-1.5-1-3.4.5-4.3 1.6-1 2.8.7 3.8 1.7 3.3 3.7 6 7.8 8 12.3 1.6 3 3 6.1 4 9.3 1.6 4.4 1 8.6-2.5 12l-1 1.3a11 11 0 0 1-6.2 4.4c-7.2 2.4-14 1.2-20.5-2.2-1.9-1-3.7-2.1-5.5-3.3a7.2 7.2 0 0 1-3-4c3-1 6-1.2 9-1 .5 0 1 .2 1.5.1.5 0 1-.3 1.5-.5-.3-.5-.4-1-.8-1.3l-7.6-5.7a44 44 0 0 1-8.8-8.8c-1-1.3-1.7-2.9-2.2-4.4-.4-1.4.4-2.3 2-2 1 .2 2 .7 3 1.2 3.5 2 6.4 4.8 9.5 7.6l3.7 3.3c.6.5 1.2 1.2 2.2.4Z"
        fill="#AEABAB" />
    <path
        d="m93 394.1 6.9.9c1.9.1 4.3.5 6.2-.3 3-1.2 4.2-5.4 7.7-5.3 1 0 1-1.6 0-1.7-1.6 0-3 .7-4.3 1.8-1.2 1-2 2.4-3.3 3.3-1.6 1-4 .7-5.7.6-2.3-.2-4.7-.5-7-.9-1-.1-1.5 1.5-.5 1.6Z"
        fill="#212121" />
    <path fill-rule="evenodd" clip-rule="evenodd"
        d="m230.3 176.3-.5 3.3c-1.1 5.8-2.3 11.6-2 17.6.2 3 0 6.2 1.2 9.1.2.5 0 1.4-.3 1.8-2.2 2-2.7 4.8-3.9 7.4-1.5 3.4-3.2 6.6-4.8 10l-4 8.6c-1.8 3.4-3.9 6.7-5.7 10.1l-10.9 20c-1.2 2.3-2.7 4.3-4.1 6.4-1.2 1.7-3 2.4-5 2.7-5 1-9.7.7-14.3-2-3.5-2-4.8-5-5.1-8.7-.5-4.6.7-8.9 3.2-12.8 1.6-2.3 2.7-5 4-7.4 2.9-5 5.8-9.9 8.6-15 1.7-3.3 3.2-6.8 4.9-10.2a1979.8 1979.8 0 0 1 12-23.8c.3-.5.7-1 1.2-1.3 7-3.8 14-7.6 20.2-12.5l2.6-2.4 2-1.3.7.4Zm-25 19.2c-1.6 2.6-3.2 5-4.5 7.4-3.2 6.4-6.2 13-9.3 19.3-2 4-3.5 8-6 11.5-2 3.2-3.8 6.6-5.5 9.8 2.6 3.8 5.7 6.5 9.7 8.3a50 50 0 0 0 12 4.2l9-16.8c1.2-2.3 2.7-4.5 3.9-6.9 1.1-2.1 2-4.4 3-6.7l8.7-18-5.2-3.2-15.8-8.9ZM176 251c-2.8 5.7-3 6.5-2.7 10.8.3 4.6 2.1 7 7 8.5 3.2 1 6.7 1.1 10.1.2 1.2-.3 2.5-1 3.3-2 1.3-1.7 2.3-3.6 3.6-5.7A34.1 34.1 0 0 1 176 251Zm31.4-57.3 18 10v-15.3l-5-2.8-13 8.1Zm-7.7 65.1c-4-1.6-7.9-3-11.7-4.7a23.2 23.2 0 0 1-9.4-7.7c-1.1 1.2-1.3 2-.4 3a31 31 0 0 0 11.4 8.3c2.4 1 5 1.6 7.6 2.3 1 .2 2.2.5 2.5-1.2Z"
        fill="#212121" />
    <path fill-rule="evenodd" clip-rule="evenodd"
        d="m205.3 195.5 15.8 8.9 5.2 3.2-8.6 18-3.1 6.7-4 7c-3 5.4-5.8 11-8.9 16.7-4.3-.8-8.1-2.5-12-4.3-4-1.8-7.1-4.5-9.8-8.2 1.8-3.2 3.5-6.6 5.6-9.8 2.4-3.6 4-7.6 6-11.5 3-6.4 6.1-12.9 9.3-19.3 1.3-2.5 2.9-4.8 4.5-7.4Z"
        fill="#AEABAB" />
    <path fill-rule="evenodd" clip-rule="evenodd"
        d="M176.1 251a34.2 34.2 0 0 0 21.3 11.8c-1.3 2-2.3 4-3.6 5.7-.8 1-2 1.7-3.3 2-3.4 1-6.9.9-10.2-.2-4.8-1.5-6.6-4-6.9-8.5-.3-4.3-.1-5 2.7-10.8ZM207.5 193.7l13.1-8.1 5 2.8v15.2l-18-9.9ZM199.8 258.8c-.3 1.7-1.5 1.4-2.5 1.2-2.6-.7-5.1-1.3-7.6-2.2a30.4 30.4 0 0 1-9.5-6.2l-2-2.1c-.8-1-.6-2 .5-3 2.5 3.2 5.5 6 9.4 7.6l11.7 4.7Z"
        fill="#fff" />
    <path
        d="M211.6 198.3c-5 8.8-10.3 17.4-14.8 26.5-4.2 8.4-7.7 17.2-13.5 24.7-.6.8.8 1.6 1.4.8 5.8-7.4 9.3-16.3 13.5-24.7 4.5-9 9.8-17.6 14.8-26.4.5-1-1-1.8-1.4-.9ZM219.5 203c-.7 4.4-3.5 8-5.7 11.7-2.7 4.4-5 9-7.5 13.5-4.9 8.4-11 16.4-14.3 25.6-.4 1 1.2 1.4 1.5.4 1.8-4.7 4.3-9 7-13.2l7.8-13c2.6-4.5 4.7-8.9 7.3-13.1 2.2-3.6 4.8-7.2 5.5-11.4.2-1-1.4-1.5-1.6-.4Z"
        fill="#212121" />
    <path fill-rule="evenodd" clip-rule="evenodd"
        d="M305.7 142c-2.4.1-3-.6-2.4-2.8l4.3-17.7c2-7.8 4-15.6 5.8-23.4 1.7-7.6 3-15.2 4.5-22.8l3.7-18.8 2.4-14.8c1-6.3 1.8-12.6 2.7-19 .3-1.4 1.4-1.8 2.5-.8.6.6 1 1.5 1.4 2.2l7.6 14 4.3 8.2 7 13L356 71l12.5 24.3 10.9 20.6c.5.9 1.2 1.7 1.7 2.7.7 1.4 0 2.5-1.6 2.8l-11.5 2.8-17.4 4.7-3.8 1.1c-7.7 3-15.9 4.8-23.8 7.2l-15 4.4-2.3.5Zm.4-2.6 72-20.8c-8.1-15.5-15.8-31.1-24.2-46.3-8.3-15.3-16-30.9-25.2-46.3-5 38.5-13.2 75.8-22.6 113.4Z"
        fill="#212121" />
    <path fill-rule="evenodd" clip-rule="evenodd"
        d="M306 139.4A999.8 999.8 0 0 0 328.8 26c9.3 15.4 16.9 31 25.2 46.3 8.4 15.2 16 30.7 24.1 46.3l-71.9 20.8Zm19-19.2c1.5-.4 2.4-.5 3.1-.8l3.7-1.4 17-4.8c2.2-.6 4.3-1 6.4-1.7 2.6-.9 2.7-1.2 1.7-3.6-.3-1-.8-1.8-1.2-2.7l-6.1-13.4-7.6-18c-1-2.4-2.3-4.6-3.3-7-.7-1.4-1.3-3-1.9-4.5-3.1.6-3.2.6-3.6 3.5-.9 5.8-1.7 11.5-2.4 17.3-1.2 10.4-3 20.7-4.8 31l-1 6.1Z"
        fill="#fff" />
    <path fill-rule="evenodd" clip-rule="evenodd"
        d="m325 120.2 1-6c1.9-10.4 3.6-20.7 4.8-31.1.7-5.8 1.5-11.5 2.4-17.3.4-2.9.5-3 3.7-3.5.5 1.5 1 3 1.8 4.5 1 2.4 2.3 4.6 3.3 7l7.6 18 6.1 13.4 1.2 2.7c1 2.4 1 2.7-1.7 3.6-2 .7-4.2 1.1-6.3 1.7l-17 4.7c-1.4.4-2.5 1-3.8 1.5-.7.3-1.6.4-3 .8Zm11-54.4h-.8l-7.2 51 26.6-7.5-18.7-43.4Z"
        fill="#212121" />
    <path
        d="M332.4 43.9c1.8-.7 3.5-1.6 5.4-2.2.4-.1.7-.6.6-1-.2-.4-.6-.7-1-.6-2 .7-3.6 1.6-5.5 2.2-.4.1-.7.6-.5 1 0 .4.5.7 1 .6ZM336.7 52.7c1.8-.8 3.7-1.5 5.6-2.1.5-.1.7-.6.6-1a.8.8 0 0 0-1-.6c-2 .6-4 1.4-6 2.3-.4.2-.5.7-.3 1 .2.5.7.6 1 .4ZM340.8 62.5c2.4-.8 4.7-1.7 7.2-2.2.4 0 .7-.6.6-1-.2-.4-.6-.6-1-.5-2.5.4-4.9 1.3-7.2 2.1-.4.2-.7.6-.6 1 .1.4.6.8 1 .6ZM346 71.8c2.2-1.1 4.7-1.3 7-2.4.3-.2.5-.8.2-1.1-.2-.4-.7-.5-1-.3-2.3 1-4.8 1.3-7 2.4-.4.2-.5.7-.3 1 .2.5.7.6 1.1.4ZM349.5 81.4c2.6-1 5.3-2 8-2.8 1-.4.6-2-.4-1.6-2.7.8-5.4 1.8-8 2.8-.4.2-.7.5-.6 1 .1.4.6.7 1 .6ZM355 89.2c2.6-.5 5.1-1.1 7.7-1.8 1-.2.6-1.8-.4-1.5a101 101 0 0 1-7.8 1.7c-.4 0-.7.6-.6 1 .2.5.6.6 1 .6ZM357.7 97.9c3-.5 6-1.6 8.7-2.6.4-.2.7-.6.6-1-.1-.4-.6-.8-1-.6a43 43 0 0 1-8.7 2.6c-.4 0-.7.6-.6 1 .2.5.6.6 1 .6ZM362.3 106.8c3-.3 5.6-2 8.5-2.9 1-.3.5-1.9-.5-1.6-2.7.9-5.1 2.6-8 2.8-.4 0-.8.4-.8.8s.4.9.8.8ZM366 115.4c3.5-.2 6.7-1.5 10-2.6 1-.3.5-1.9-.5-1.6-3 1-6.1 2.4-9.5 2.6-1 0-1 1.7 0 1.6ZM336.2 47.7a12.7 12.7 0 0 1 1.6-.9h.2l.2-.1c-.1 0-.1 0 0 0 .7-.3 1.4-.5 2.2-.6.4-.1.7-.7.6-1-.2-.5-.6-.7-1-.6-1.7.2-3.2.9-4.6 1.8-.3.2-.5.7-.3 1.1.3.4.8.6 1.2.3ZM341.5 56.7c1.3-.2 2.6-.7 3.9-1.1.4-.2.7-.6.6-1-.2-.4-.6-.7-1-.6-1.3.4-2.6.9-4 1-.4.1-.6.7-.5 1 .1.5.5.7 1 .7ZM346.3 66.2l4.3-1c.4-.2.7-.6.6-1-.2-.5-.6-.8-1-.6l-4.4 1c-.4.1-.7.6-.6 1 .2.4.6.7 1 .6ZM349.5 75.3c2 0 3.9-.2 5.6-.9.5-.1.7-.5.6-1 0-.4-.6-.7-1-.5-1.7.6-3.4.8-5.2.8-.4 0-.8.4-.8.8s.4.8.8.8ZM355.6 84c1.5-.2 2.9-.8 4.3-1.3.4-.2.7-.6.6-1-.1-.4-.6-.7-1-.6-1.5.5-2.9 1-4.4 1.3-.4 0-.6.6-.5 1 .1.5.5.6 1 .6ZM359.7 92.4c1.4-.2 2.7-.8 4.1-1 .4-.1.7-.7.6-1-.1-.5-.5-.7-1-.6-1.4.2-2.7.8-4.1 1-.4.1-.7.7-.6 1 .1.5.5.7 1 .6ZM363.8 101.3c1.7-.2 3.4-.7 5-1.4.4-.1.5-.7.3-1-.3-.5-.7-.5-1.1-.4l-.2.1-.3.1-.6.2a17 17 0 0 1-3.5.9c-.4 0-.7.6-.6 1 .2.4.6.6 1 .5ZM368.8 110.3l1-.5.4-.1.1-.1.5-.2 2.1-.5c.5 0 .7-.6.6-1-.1-.5-.5-.6-1-.6-1.6.3-3.1.8-4.5 1.6-.4.2-.6.8-.3 1.2.2.3.7.5 1.1.2Z"
        fill="#212121" />
    <path fill-rule="evenodd" clip-rule="evenodd"
        d="M384.5 13.6c-1-.4-2-.6-2.8-1.1-.7-.5-1.5-1.3-1.6-2-.2-2-.3-4.2.1-6.2.4-2.3 2.1-3.6 4.6-3.8 6.6-.6 13.2-.7 19.8-.2 2.7.2 5.5.3 8.2.7 4.1.6 5.3 2.2 5.5 6.4v3.4c0 2-.4 2.5-2.3 3l-1.9.1-1.6.4V19c.3 8.6.7 17.1.9 25.7.1 6.6 0 13.2-.1 19.8a162 162 0 0 1-1 14c-.5 4-2.5 6.9-6.5 8.3a18.3 18.3 0 0 1-11.3 1.2c-1.7-.5-3-1.4-4.2-2.7-3.5-4-4.2-9-5-14-.8-6.2-.5-12.5-.8-18.7l-.3-19.9.3-13.5v-5.6Zm2.3 0-.5 7.8v16c-.1 2.3-.4 4.7-.3 7 .1 5 .6 10 .6 15 .1 5.3.7 10.5 1.5 15.6.5 3.2 1.8 6 4 8.5a6 6 0 0 0 3.5 2.1 17 17 0 0 0 11.8-2.6c.7-.4 1.3-1.2 1.7-2 1.5-2.7 1.6-5.9 1.9-9 .3-4 .3-8 .4-12l.3-21c0-4-.2-8-.4-11.9l-1.2-13c-7.8-1.4-15.4-.2-23.3-.5Zm12-11.3V2l-12.6.5c-3 .1-4 1.3-4.2 4.2-.1 4 .5 4.7 4.4 5h1.8l9.3.1c4.4.2 8.8.5 13.1.9 4.5.3 6.2-1.5 5.3-5.8l-.3-1.2c-.2-1.4-1-2-2.3-2.3-1.8-.4-3.6-.8-5.4-1h-9Z"
        fill="#212121" />
    <path fill-rule="evenodd" clip-rule="evenodd"
        d="M386.8 13.6c7.9.3 15.5-.9 23.4.5.3 4.4.8 8.7 1 13 .3 4 .5 8 .5 12l-.3 20.8c0 4 0 8.1-.4 12.2-.3 3-.3 6.2-1.9 9-.4.7-1 1.5-1.6 2a17 17 0 0 1-11.9 2.5 6 6 0 0 1-3.5-2 16.3 16.3 0 0 1-4-8.6c-.8-5.1-1.4-10.3-1.4-15.5-.1-5-.6-10-.7-15l.2-7.2c.1-5.3 0-10.6.2-15.9 0-2.4.3-4.9.4-7.8Z"
        fill="#fff" />
    <path fill-rule="evenodd" clip-rule="evenodd"
        d="M389.9 21c6 .3 12-.8 18.1.5.3 4.1.5 3.2.7 7.2.2 3.6.3 7.3.3 11 0 6.4 0 12.9-.2 19.3 0 3.8 0 7.5-.3 11.3-.2 2.8-.3 5.7-1.5 8.2-.3.7-.7 1.5-1.3 1.9-2.8 2-5.8 3.1-9.2 2.4-1.2-.3-2-1-2.8-2a16.5 16.5 0 0 1-3-7.8c-.7-4.8-1.1-9.6-1.2-14.4 0-4.6-.4-9.3-.5-14l.2-6.5c0-5 .2-5 .3-9.8 0-2.3.2-4.6.4-7.2Z"
        fill="#EB1118" />
    <path fill-rule="evenodd" clip-rule="evenodd"
        d="M398.9 2.3h9c1.8.2 3.6.6 5.4 1 1.2.2 2.1.9 2.3 2.2 0 .5.2.9.3 1.3.9 4.3-.8 6-5.3 5.7l-13.1-.8c-3-.1-6.2 0-9.3 0l-1.8-.1c-3.9-.4-4.5-1-4.4-5 .1-3 1.1-4 4.2-4.2 4.2-.3 8.5-.4 12.7-.5v.4Z"
        fill="#fff" />
    <path
        d="M405 23h6c1 0 1-1.7 0-1.7h-6c-1.1 0-1.1 1.6 0 1.6ZM404.7 32.2c2.3.5 4.6.3 7 .3 1 0 1-1.6 0-1.6-2.2 0-4.4.2-6.6-.2-.4 0-.8.1-1 .6 0 .4.2.9.6 1ZM405.1 43.3c2.3.4 4.5.3 6.8.3 1 0 1-1.7 0-1.7-2.1 0-4.2.2-6.3-.2-.4 0-.9.2-1 .6-.1.4.1 1 .6 1ZM406 53.3c1.9.2 3.8.2 5.6.2.5 0 .8-.4.8-.8s-.3-.8-.8-.8c-1.9 0-3.7 0-5.6-.2-.4 0-.8.4-.8.8 0 .5.4.8.8.8ZM408.4 48.7c1.1.2 2.3.3 3.5.3.4 0 .8-.4.8-.8 0-.5-.4-.9-.8-.9h-1.6a5.3 5.3 0 0 1-1 0c-.2 0 .2 0 0 0l-.5-.1c-.4-.1-.9 0-1 .5 0 .4.1 1 .6 1ZM408.2 37.7a8 8 0 0 0 3.5-.3c.4 0 .7-.5.5-1a.8.8 0 0 0-1-.5l-.6.1h-.4l-.2.1c.3 0 0 0 0 0h-1.3.2-.3c-.4-.1-.9.1-1 .6 0 .4.1.9.6 1ZM407.7 28.1h3.7c.5 0 .9-.3.8-.8 0-.4-.3-.8-.8-.8h-3.7c-.4 0-.8.4-.8.8 0 .5.4.8.8.8Z"
        fill="#212121" />
    <path fill-rule="evenodd" clip-rule="evenodd"
        d="M497.1 70.1c2-.9 3.7-1.8 5.5-2.5 4.4-1.9 9-2.5 13.8-2.4l12.1.6c3.8.3 7.2 1.7 10.6 3.2 3.1 1.3 6.1 2.8 9.2 4.2 2.6 1.2 4.8 2.8 7 4.7 1.3 1.3 1.6 2.5 1.3 4.2l-3.6 21-4.5 26.9-3 17.2-.5 1.7c-.4 1.1-1 1.5-2.3 1.3-5.6-.7-11.2-1.3-16.8-2.2-7.7-1.2-15.3-2.8-23-4-7.1-1.1-14.3-2-21.5-2.9a47 47 0 0 1-2.4-.3l-19.5-3.6-10.7-1.6-17-2.8c-3.3-.6-3.6-.9-2.9-4.1 1-4.4 2-8.8 2.8-13.2a847.4 847.4 0 0 0 5.8-39.6l1.5-15c.1-1.6.6-2.3 2.3-2.8 3.6-1.2 7-2.4 10.8-2.5 7-.3 13.8.1 20.5 2.1l10.9 3.2 1 .4c4.3 2.7 9.2 4.5 12.6 8.8Zm57.4 10.4c-2-1.5-4-3.3-6-4.4-4.2-2.1-8.5-4-12.8-6a29 29 0 0 0-11.6-2h-4.2c-7.4-.8-14.3.2-20.6 4.3-1.3.7-1.9 1.5-2 2.7-.6 3.4-1.2 6.8-1.6 10.2-.5 4.7-.7 9.3-1.3 14l-2.7 19.4c-.7 5.1-1 10.3-2.6 15.3v1l4-2.5c4.6-2.4 9.6-2.8 14.6-3.4 4.3-.6 8.5.2 12.6 1 7.9 1.6 14.7 5 20 11.3l3.2 3.5 11-64.4ZM432 125.8l1.6-1c2.5-1.3 5-3 7.8-3.8 10-2.7 19.6-1.7 28.6 3.4a53 53 0 0 1 14.3 12l1.5 1.6c1-3.7 2-7 2.4-10.3 1.1-7 2-14 2.8-21l1.4-12c.2-1.3.1-2.6.3-3.8.7-5.5 1.4-11 2.3-16.5a5 5 0 0 0-2-5 46 46 0 0 0-13-7 71.4 71.4 0 0 0-26.4-4.4c-4.4.1-8.6 1.1-12.5 3.4-2.1 21.6-5 43-9.1 64.4Zm109.1 21.7-.8-2a30.4 30.4 0 0 0-11.2-9.8 39 39 0 0 0-13.5-3.7c-7-.8-13.7 0-20.3 2.4-2.4 1-4.4 2.6-5.8 5l3.2.8 8.1 1.1c9.1 1.6 18.1 3.3 27.2 4.8 4.1.7 8.4 1 13.1 1.4Zm-59-8.8.3-.7a53 53 0 0 0-9.6-8.9 36 36 0 0 0-19.3-6.7c-6.3-.3-12.3.7-17.6 4.3a16 16 0 0 0-3.7 3.6l49.8 8.4Z"
        fill="#212121" />
    <path fill-rule="evenodd" clip-rule="evenodd"
        d="m554.5 80.5-11 64.4-3.3-3.5c-5.2-6.2-12-9.7-19.9-11.2-4.1-.9-8.3-1.7-12.6-1.1-5 .6-10 1-14.5 3.4l-4 2.5v-1c1.5-5 1.8-10.2 2.5-15.3 1-6.5 2-13 2.7-19.4.6-4.7.8-9.3 1.3-14l1.5-10.2c.2-1.2.9-2 2-2.7 6.4-4 13.3-5 20.7-4.4 1.4.2 2.8 0 4.2 0 4 0 8 .5 11.7 2.2 4.2 1.9 8.5 3.8 12.7 6 2.1 1 4 2.8 6 4.3ZM432 125.8c4.3-21.4 7-42.8 9.2-64.4 3.9-2.3 8.1-3.3 12.5-3.4a71.4 71.4 0 0 1 35.8 8.7l3.6 2.6a5 5 0 0 1 2 5c-1 5.6-1.6 11.1-2.3 16.6-.2 1.2-.2 2.5-.3 3.7l-1.4 12c-.9 7-1.7 14-2.8 21-.5 3.4-1.5 6.7-2.4 10.4l-1.5-1.5c-4-4.8-8.8-9-14.3-12-9-5.2-18.7-6.2-28.6-3.5-2.8.7-5.3 2.5-7.8 3.8l-1.6 1Z"
        fill="#fff" />
    <path fill-rule="evenodd" clip-rule="evenodd"
        d="M541.2 147.5c-4.7-.5-9-.7-13.1-1.4l-27.1-4.8-8.2-1.1-3.2-.7c1.5-2.5 3.4-4.1 5.8-5a42.9 42.9 0 0 1 20.3-2.5c4.7.6 9.3 1.6 13.5 3.7 4.5 2.4 8.3 5.7 11.2 9.9.3.4.4.9.8 2ZM482.1 138.8l-49.8-8.5c1.2-1.5 2.3-2.7 3.7-3.6a27.7 27.7 0 0 1 17.6-4.3 36 36 0 0 1 19.3 6.7 53 53 0 0 1 9.6 9l-.4.7ZM448.4 68c0 4.8-1.7 10-1.3 14.5.3 2.8-.6 2 2.4 2.8 1.8.5 4.2.3 6.1.3 5.2.4 6.3.6 6.3-5.5 0-3.9.2-7.6.4-11.5-3.7-1-9.3-1.3-13.4-1"
        fill="#AEABAB" />
    <path
        d="M467.1 72.5c7.4 0 15 .6 21.3 4.8.9.6 1.7-.8.8-1.4-6.5-4.4-14.5-5-22-5-1.1 0-1.1 1.6 0 1.6ZM466.5 79.6a105 105 0 0 1 21.2 3.5c1 .3 1.5-1.3.4-1.6-7-2.1-14.3-2.9-21.7-3.5-1-.1-1 1.5 0 1.6ZM465.8 86.8c6.9.8 13.7 2.2 20.4 3.9 1 .2 1.5-1.4.4-1.6-6.8-1.7-13.8-3-20.8-4-1 0-1 1.5 0 1.7ZM442.8 94.4c7.2 0 14.4-.1 21.6.6a45 45 0 0 1 21 6.4c.8.6 1.6-.8.8-1.4a45.3 45.3 0 0 0-20.8-6.5c-7.2-.8-15-.8-22.6-.8-1 0-1 1.7 0 1.7ZM442.4 102.4c6.9-1.8 14.4-1.5 21.4-.4 7 1.1 14.1 3.2 19.8 7.4.9.7 1.7-.7.8-1.4-5.9-4.4-13.5-6.5-20.7-7.6a55.4 55.4 0 0 0-21.8.4c-1 .3-.6 1.8.5 1.6ZM440.6 109.3c8.3 1 16.8-.5 25 1.2 2.8.5 5.6 1.2 8.4 2 2.9 1 6 2 8.2 4.2.7.7 1.9-.4 1.1-1.2-4.3-4-11-5.3-16.6-6.5-8.6-1.8-17.4-.3-26-1.3-1.1 0-1.1 1.5 0 1.6ZM441 116.5a111 111 0 0 1 20.7.7c6.9 1 13.4 3.6 19.1 7.6.9.6 1.7-.8.8-1.4a45.7 45.7 0 0 0-19.4-7.8c-7-1.1-14-1-21.1-.7-1 0-1 1.6 0 1.6Z"
        fill="#212121" />
    <path fill-rule="evenodd" clip-rule="evenodd"
        d="M497.5 115.7c-.4 3-1.3 5.6-1.5 8.4 5-.4 10.4-1.7 16-1 4.6.4 8.7 2.8 12.8 4.3 1.1-2.6 2-6.1 2.4-8.7-4.6-1.3-10.2-3.7-14.8-4.1-5-.5-8.8.8-15 1"
        fill="#EB1118" />
    <path fill-rule="evenodd" clip-rule="evenodd"
        d="M533.7 101.4c-.8 8.8-2.3 17.7-3.4 26.4 4 1.3 7.8 2.2 11.2 4.6 2.7-4.2 2.9-11.5 4-16.3.8-3.9 1.5-8.2 1.3-12.4-4-1-8.5-1.5-12.4-2.1"
        fill="#AEABAB" />
    <path
        d="M503.6 78.5a56.1 56.1 0 0 1 42.7 5.4c1 .5 1.8-1 .9-1.5-13-8-29.5-9.2-44-5.5-1 .3-.6 1.9.4 1.6ZM502.7 85.5c7.1-.5 14.4-1.2 21.5-.5 7.1.8 13.8 3.3 20.4 5.7 1 .3 1.4-1.3.4-1.6-6.6-2.4-13.2-4.8-20.2-5.6-7-.9-14.8-.1-22.1.4-1 0-1 1.6 0 1.6ZM502.7 93.7c8-1 16-.9 24 .3 5.6.8 11.9 1.7 16.8 4.8.9.6 1.7-.8.8-1.4-5-3.2-11.4-4.2-17.2-5a88.8 88.8 0 0 0-24.4-.3c-1 .1-1 1.7 0 1.6ZM501 100.9c9.3.2 18.7-.4 27.7 2.1 1 .3 1.5-1.3.5-1.6-9.2-2.5-18.8-2-28.3-2.2-1 0-1 1.6 0 1.7ZM499.9 108.2c8.9-.8 18.2-.8 26.3 3.6.9.5 1.7-.9.8-1.4-8.3-4.6-18-4.6-27.1-3.8-1 .1-1 1.7 0 1.6Z"
        fill="#212121" />
    <path fill-rule="evenodd" clip-rule="evenodd"
        d="M499.4 206.3c2.5 11 3.1 22.2 3.5 33.4.1 5-.1 9.8-.3 14.7-.2 4.4-3.3 7.8-7.7 9.1-3.5 1-7.7-1.4-9.6-4.5a61 61 0 0 1-5.5-10.6c-3.4-9-6.1-18.3-7.5-27.9-.4-2.6-.6-5.3-.8-8-.3-4.3-.7-8.7-.8-13-.2-5-.4-9.8 0-14.7.5-6 4-10.6 9.5-13.6 2-1.2 6.5.2 7.8 2.6 2 3.8 4.3 7.5 5.7 11.5 2 5.8 3.4 11.8 5 17.8.4 1 .5 2.1.7 3.2Zm-3-4.7c-1.5-4.6-2.8-9.3-4.4-14-1.4-3.6-3-7.2-4.8-10.8-.4-1-1.2-1.8-2-2.6-1.2-1-2.8-1.5-4-.8-2.4 1.4-4.9 3-6.1 5.5-1.4 3-2.6 6-2.2 9.3.2 1.8.2 3.7 0 5.6-.6 8.6 1 17 1.1 25.6 0 .8.3 1.6.4 2.4 1 6.2 3 12.1 4.7 18.2a75.4 75.4 0 0 0 6.5 15.3c.7 1.3 1.6 2.6 2.7 3.6 2.8 2.7 6.2 2.8 9.2.2a7.7 7.7 0 0 0 2.6-5.9c.1-6.7.3-13.5.1-20.2-.3-10.6-1.3-21-3.9-31.4Z"
        fill="#212121" />
    <path fill-rule="evenodd" clip-rule="evenodd"
        d="M483 201.4c11.3 3.3 21.8 8.2 32.1 13.4 4.5 2.2 8.8 4.8 13 7.3 4 2.3 5.5 6.5 4.4 10.8-.9 3.5-5.3 5.7-9 5.8a69 69 0 0 1-12.5-.5c-9.9-1.6-19.6-3.9-29-7.3-2.6-1-5.1-2.2-7.6-3.3-4.1-1.8-8.3-3.7-12.3-5.7-4.5-2.2-9-4.4-13.2-7a16 16 0 0 1-7.5-14.6c0-2.2 3.6-5.2 6.5-5.2 4.4 0 9 0 13.3.9 6.3 1 12.4 2.8 18.6 4.3l3.3 1Zm-5.7.3c-5-1-9.9-2.3-14.9-3.2-4-.7-8.2-1-12.3-1.3-1-.1-2.2.2-3.3.5-1.5.4-2.8 1.5-2.8 3 0 2.6.2 5.3 1.9 7.6 1.9 2.6 4 5 7.1 6.3 1.8.8 3.6 1.7 5.2 2.7 7.4 4.8 16 7.5 23.7 11.5.7.4 1.5.6 2.3.9 6.1 2.1 12.5 3.4 18.8 5a83.8 83.8 0 0 0 17.3 2c1.5 0 3.1-.2 4.6-.6 3.9-1 5.7-3.7 5-7.4-.5-2.3-2-4-4-5.1-6-3.4-12.1-6.8-18.3-10-9.7-4.8-19.7-9-30.3-12Z"
        fill="#212121" />
    <path fill-rule="evenodd" clip-rule="evenodd"
        d="M488 198.8c5.2-3.8 10.2-7.7 15.6-11.1 3.8-2.4 8-4 12-5.8 2.7-1.1 7.1.3 8 2.4a16 16 0 0 1-1.5 16.3c-2.9 4-6.2 7.7-9.5 11.5-3 3.4-6.2 6.6-9.3 9.9-1.9 2-3.7 4-5.8 5.8a154 154 0 0 1-24.2 17.7 68.6 68.6 0 0 1-11.2 5.2c-3.6 1.3-8.5.9-10.6-2a9.4 9.4 0 0 1 0-11.6 193.4 193.4 0 0 1 34-36.2c.7-.7 1.6-1.5 2.5-2.1Zm-20.7 22.7c-4.6 5.2-8.9 10.7-13.2 16.1a7.6 7.6 0 0 0-1.8 6.2c.7 3.7 3.4 5.6 7.4 5 1.5-.1 3-.6 4.5-1.2a84 84 0 0 0 15.2-8.3c5.3-3.8 10.7-7.4 15.6-11.7.6-.6 1.3-1 1.8-1.7 5.7-6.7 12.6-12.4 17.7-19.5a32 32 0 0 1 3.7-4.5c2.5-2.4 3.5-5.4 4.3-8.5.7-2.8-.2-5.4-1.2-7.9-.5-1.3-2.1-1.8-3.7-1.6-1 0-2.3.2-3.3.7-3.6 2-7.4 3.8-10.9 6-4.3 2.6-8.3 5.6-12.5 8.4a166.4 166.4 0 0 0-23.6 22.5Z"
        fill="#212121" />
    <path fill-rule="evenodd" clip-rule="evenodd"
        d="M488.3 226.4c-6.1 1-9.9-4.4-9.5-9.4.4-4 2.7-6.4 6.1-8.2 2.6-1.3 6-.7 8 1.5 1 1.2 2 2.5 2.5 4 2.4 5.5-.9 11-7 12Zm-6.8-6.5a4.7 4.7 0 0 0 3.8 3.7c2.6.6 4.9-.3 6.7-2.2 1.8-1.7 2-3.9 1.4-6.1-.8-2.8-3.7-4.9-6-4.5-3.5.5-6.7 5-5.9 9.1Z"
        fill="#212121" />
    <path fill-rule="evenodd" clip-rule="evenodd"
        d="M481.5 220c-.8-4.3 2.4-8.7 5.9-9.2 2.3-.4 5.2 1.7 6 4.5.7 2.2.4 4.4-1.4 6.1-1.8 1.9-4 2.8-6.7 2.2a4.7 4.7 0 0 1-3.8-3.7Z"
        fill="#fff" />
    <path
        d="M454.8 202.1c2.6 0 5-2.2 5-4.8a5 5 0 0 0-5-5c-2.5 0-5 2.3-4.8 5a5 5 0 0 0 4.8 4.8ZM468.3 253c2.6 0 5-2.3 4.9-4.9a5 5 0 0 0-4.9-4.9c-2.5 0-5 2.3-4.9 4.9a5 5 0 0 0 5 4.9ZM523 201.2c2.5 0 5-2.2 4.9-4.9a5 5 0 0 0-5-4.8c-2.5 0-5 2.2-4.8 4.8a5 5 0 0 0 4.9 5ZM475.7 180.8c2.5 0 5-2.2 4.8-4.8a5 5 0 0 0-4.8-5c-2.6 0-5 2.3-5 5a5 5 0 0 0 5 4.8ZM501.2 261.6c2.5 0 5-2.2 4.9-4.9a5 5 0 0 0-5-4.9c-2.5 0-5 2.3-4.8 5a5 5 0 0 0 4.9 4.8ZM531.3 237.1c2.6 0 5-2.2 5-4.8a5 5 0 0 0-5-5c-2.5 0-5 2.3-4.8 5a5 5 0 0 0 4.8 4.8Z"
        fill="#EB1118" />
    <path fill-rule="evenodd" clip-rule="evenodd"
        d="M558.4 471H555c-3.3-.1-5-1.4-6-4.6-.3-1.6-.6-3.2-.6-4.7-.2-7.7-.6-15.4.4-23a64 64 0 0 1 .9-5.5c.6-2.7 2.7-4 5-5.1 3.2-1.5 6.6-1.7 10.1-1.4 1.8 0 3.7.2 5.5 0 5.5-.8 11-.7 16.4-.5h11.7c3.4 0 6.9.3 10.3.5 4.8.4 7.3 3.1 7.6 8 .3 4.4.3 8.8.2 13.2 0 4.8-.4 9.5-.7 14.3l-.1 1.6c-.9 3.9-2.4 6.4-7.2 6.8l-16.4 1-4 .2-13 .3-4.3.2c.1 2.7-.6 5-2.1 6.8-1.7 2-3.8 3.5-6.4 4l-5.2.9c-1.7.2-2.2-.6-1.5-2 .5-1.2 1.2-2.2 1.7-3.3 1.1-2.3 1.4-4.7 1.1-7.7Zm.6 10a11 11 0 0 0 6.2-1.7c2.4-1.9 4.2-4 3.3-7.4-.3-1.4.3-2 1.8-2 2.7 0 5.4.2 8.2.1 8.9-.3 17.8-.5 26.7-1.4l4-.3c2.2-.3 3.6-1.7 4.2-3.8.3-1 .5-2 .5-2.9l.8-23.3c0-1.5-.2-3-.5-4.4-.6-3-2-4.3-5-4.6-3-.3-6-.5-9.2-.5h-14.6l-14.5.3-6.4.1c-2 0-4-.1-6 .1-4.2.6-6.6 2.6-7.3 6.2-.5 2.4-.8 5-.9 7.4a187.7 187.7 0 0 0 .2 20.6c.2 3.8 1.7 5.2 5.4 5.3h3.4c1.2.1 1.8.8 1.6 2l-1.6 8.8-.3 1.5Z"
        fill="#212121" />
    <path fill-rule="evenodd" clip-rule="evenodd"
        d="m559 481 .3-1.4 1.6-8.8c.2-1.2-.4-1.9-1.6-2H556c-3.7-.1-5.2-1.5-5.4-5.3a188.6 188.6 0 0 1-.2-20.6c.1-2.5.4-5 .9-7.4.7-3.6 3.1-5.6 7.3-6.2 2-.2 4 0 6-.1h6.4l14.6-.4H600c3.1 0 6.2.2 9.3.5 3 .3 4.4 1.6 5 4.6.2 1.4.5 3 .4 4.4l-.8 23.3c0 1-.2 2-.5 2.9-.6 2-2 3.5-4.3 3.8-1.3.2-2.6.2-4 .3-8.8.9-17.7 1.1-26.6 1.4h-8.2c-1.5 0-2 .5-1.7 1.9.8 3.4-1 5.5-3.4 7.4a11.2 11.2 0 0 1-6.2 1.8Z"
        fill="#EB1118" />
    <path
        d="M560.6 441.9c15 0 30.2.4 45.3.4 1 0 1-1.6 0-1.6-15.1 0-30.2-.5-45.3-.5-1 0-1.1 1.7 0 1.7ZM560.8 449c15 0 30-.4 44.9-.4 1 0 1-1.6 0-1.6-15 0-30 .4-45 .4-1 0-1 1.6 0 1.6ZM560.8 456.2c15.2 0 30.4-.5 45.6-.5 1 0 1-1.6 0-1.6-15.2 0-30.4.4-45.6.4-1 0-1 1.7 0 1.7Z"
        fill="#212121" />
    <path fill-rule="evenodd" clip-rule="evenodd"
        d="M485.2 439.6c1 2.8 1.9 5.4 2.6 8a234 234 0 0 0 10.2 28.2l8.9 21.1 2.1 4.2c.7 1.5.4 2.3-1.2 2.6-3.7.7-6.5 3-8.7 5.7-3 3.5-3.6 7.6-2 12 1 2.2.3 3.2-2 3.4l-22 2.5c-5.1.5-10.3.8-15.5 1.2-4.2.3-8.3.8-12.5 1-4.1.3-8.2.8-12.6.3l-3.7-9.3-6.8-18-5.1-14.8-6-17.4c-1-3.3-2-6.6-3.2-9.8-.3-.9-.1-1.6.2-2.4.8-2 2.3-3.6 3.9-5.2a29 29 0 0 1 7.7-6c2.6-1.3 5.1-2.2 8.1-2.4 6.6-.2 13.2-1 19.8-1.5l20.4-1.6 15-1.6 2.4-.3Zm-58.9 7.3c4 10.5 8 20.8 11.7 31.1 3.8 10.3 7.4 20.7 11.1 31 9.8-1.2 19.5-2 29-3.7 9.5-1.7 19.2-2.1 28.7-3.8l-7.3-17.1-1.7-3.7-7-17.3-2.9-9-.8-2.8c-1-2.7-1.8-5.5-2.7-8.3l-.5-1.3a91911 91911 0 0 1-57.6 4.9Zm-2.6.4h-.8l-1.4.7c-4 1.8-7 4.8-9.7 7.9-1.9 2-2.8 4.3-1.1 7l.4 1c2.2 7.6 4.4 15.3 7.3 22.7l5.8 16 5.6 15 3.6 8.8a31.4 31.4 0 0 1 13.8-16.2L440 489l-8-21.6-4.2-11.1c-1.2-3-1.9-6.3-4-9Zm77.8 57.3H499l-7.1.8-23.2 3.1-4.7.6-13 1.8c-.6.1-1.3.4-1.9.7a30.8 30.8 0 0 0-11.4 10.6c-1 1.6-1.8 3.4-1.3 5.5 6.4.6 54.3-3.8 58.8-5.5-2.1-7.1-.5-13 6.4-17.6Z"
        fill="#212121" />
    <path fill-rule="evenodd" clip-rule="evenodd"
        d="m426.3 446.9 57.7-5c0 .5.2 1 .4 1.4l2.7 8.3.9 2.8c1 3 1.8 6 3 9 2.1 5.8 4.5 11.5 6.8 17.3l1.7 3.7 7.3 17.1c-9.5 1.7-19.1 2.1-28.7 3.8-9.5 1.7-19.1 2.5-29 3.8l-11-31c-3.8-10.4-7.8-20.7-11.8-31.2Z"
        fill="#fff" />
    <path fill-rule="evenodd" clip-rule="evenodd"
        d="M423.7 447.3c2.2 2.7 2.9 6 4.1 9l4.3 11.1L440 489l7.2 21.2a31.5 31.5 0 0 0-13.8 16.2l-3.6-8.8-5.6-15-5.8-16c-3-7.4-5-15-7.3-22.7a4 4 0 0 0-.4-1c-1.7-2.7-.8-5 1-7 2.9-3 5.8-6.1 9.8-7.9l1.4-.6.8-.1Z"
        fill="#AEABAB" />
    <path fill-rule="evenodd" clip-rule="evenodd"
        d="M501.5 504.6c-7 4.5-8.5 10.5-6.4 17.7-4.5 1.6-52.4 6-58.8 5.4-.5-2 .3-3.8 1.4-5.4a31 31 0 0 1 11.4-10.7c.6-.3 1.2-.6 1.8-.7l13-1.8 4.7-.6 23.2-3.1 7.1-.8h2.6Z"
        fill="#fff" />
    <path fill-rule="evenodd" clip-rule="evenodd"
        d="M441 458a51 51 0 0 1 4.7 11.2c1.6 5.3.4 6.6 6.4 5.4 10.3-2.4 20.8-2.8 30.9-4.4.5-4.3-2.2-10-3.7-14-.5-2 .1-2.3-1.8-3.3-3.1-1.5-10.6 0-13.9.2-7.6.9-15.2 3.2-22.8 3.8"
        fill="#AEABAB" />
    <path
        d="M459.7 495.7c9.7-2.2 19.4-3.9 29.3-4.5 1 0 1-1.7 0-1.6-10 .6-20 2.3-29.7 4.5-1 .3-.6 1.8.4 1.6ZM464 499c4 .1 7.6-1.3 11.3-2.2 3.7-1 7.9-.4 11.8-1.3 1-.2.5-1.8-.5-1.6-3.7.9-7.6.4-11.3 1.2-3.8.9-7.4 2.4-11.2 2.2-1 0-1 1.6 0 1.7ZM454.5 513.2c12.1 1.3 24-2.5 36-3.3.7 0 .7-1 0-1-12 .8-23.9 4.6-36 3.3-.6 0-.6 1 0 1ZM448.2 518c14.5.2 29-1.3 43.4-3 .6-.1.6-1.1 0-1a319 319 0 0 1-43.4 3c-.6 0-.6 1 0 1ZM445.6 523.2c7 .1 14-.8 21-1.3 6.4-.5 12.8-1.1 19.3-2.2.6-.1.3-1-.3-1-6.5 1.1-13 1.7-19.7 2.2-6.6.6-13.5 1.4-20.3 1.3-.6 0-.6 1 0 1Z"
        fill="#212121" />
    <path fill-rule="evenodd" clip-rule="evenodd"
        d="M568.6 361.9c.8-.2 1.6-.5 2.5-.6 1.5-.3 2.6.2 3 1.6.7 1.8 1 3.6 1.6 5.4l.6 2.2c-.2.9-1 1.1-1.8 1.3l-11 3.4L548 380c-5.2 1.6-10.5 3-15.7 4.5l-7 2.2-3 .8c-1-3.7-1.5-7.1-2.3-10.5 1-1.4 2.7-1.4 3.8-2.1-.2-2.3-.6-4.6-.7-6.8 0-2.2.2-4.4.6-6.6.6-3.7 3.1-6.3 5.8-8.8 3.1-3 6.9-5 11-6.2 2-.6 4-1.3 6-1.5 6.1-.5 11.4 1.1 15.8 5.3a18 18 0 0 1 3.8 5.7l2.5 5.8Zm-44.8 23.5c16.9-4.8 33.6-9.7 50.1-15.3.1-2.7-1-4.8-1.8-7.2l-1.5.2-1.7.5c-1.1.2-2-.3-2.4-1.3l-.3-1.3c-1.5-4-3.1-7.7-6.6-10.4a17 17 0 0 0-14.4-3.2 52 52 0 0 0-7.2 2.2c-4 1.5-7.3 4.1-10 7.4a11.2 11.2 0 0 0-2.6 5.3c-.7 3.9-.8 7.7.3 11.6.4 1.5.2 2-1.4 2.5l-2.6 1 2 8h.1Z"
        fill="#212121" />
    <path fill-rule="evenodd" clip-rule="evenodd"
        d="m523.8 385.4-2-8 2.5-1c1.6-.6 1.8-1 1.4-2.5a26 26 0 0 1-.3-11.6c.4-2 1.4-3.8 2.7-5.3 2.7-3.3 5.9-5.9 9.9-7.4 2.3-.9 4.7-1.7 7.2-2.2a17 17 0 0 1 14.4 3.2c3.5 2.7 5.1 6.5 6.6 10.4l.3 1.3c.4 1 1.3 1.5 2.4 1.2.6 0 1.1-.2 1.7-.4l1.5-.2c.8 2.3 2 4.5 1.8 7.2-16.5 5.5-33.2 10.5-50 15.3h-.1Zm36.6-19v-1.2l-.1-.7a17 17 0 0 0-5.5-8.6 9.5 9.5 0 0 0-6.4-2.3c-4 .1-7.8 1-11.1 3.1a10.9 10.9 0 0 0-5.6 9.7c0 2 .6 4.1 1 6.1.4 1.4 1.1 1.7 2.5 1.3l7.8-2.4 10.2-3.2 7.2-1.8Z"
        fill="#AEABAB" />
    <path fill-rule="evenodd" clip-rule="evenodd"
        d="m560.4 366.4-7.2 1.8-10.2 3.2-7.8 2.3c-1.4.4-2.1.2-2.4-1.2-.5-2-1-4-1.1-6.1 0-4.2 2-7.5 5.6-9.7 3.3-2 7.1-3 11.1-3.1 2.4 0 4.5.7 6.4 2.3a17 17 0 0 1 5.6 9.3v1.2Zm-2.2-1.5c-.6-3-2.3-5-4.3-7a7.3 7.3 0 0 0-5.6-2.2c-3.2 0-6.3.6-9.1 2.1-5 2.7-7.3 8.2-4.6 14.3l23.6-7.2Z"
        fill="#212121" />
    <path
        d="M527.5 379.9c.1.7.3 1.5.6 2.2l.5 2c0 .4.2.6.5.6.2 0 .5-.3.5-.5-.2-1.5-1-2.9-1-4.3-.1-.3-.3-.5-.6-.5-.2 0-.5.2-.5.5ZM539.8 376.8c.5 1.3 1.3 2.5 1.8 3.8.1.3.4.5.6.4.3 0 .5-.4.4-.6l-1.9-3.8c0-.3-.3-.4-.6-.4-.2 0-.4.4-.3.6ZM553 373.3l1.7 3.7c.1.2.5.3.7.1.2-.1.3-.4.1-.7-.5-1.2-1-2.4-1.7-3.6 0-.3-.4-.3-.6-.2-.3.1-.4.4-.2.7ZM566 369l1.4 3.8c.2.2.5.3.7.1.3-.1.3-.4.2-.7l-1.4-3.5c0-.3-.3-.4-.6-.4-.2.1-.4.4-.4.6ZM534 380.2V380.6l.2.4.2.6.6 1.4c0 .2.4.3.6.1.3-.1.4-.4.2-.6l-.1-.3s-.1-.2 0-.1l-.1-.2-.3-.6-.5-1.5c-.1-.2-.5-.3-.7-.1-.3.1-.3.4-.2.6ZM546.3 376.4a8.2 8.2 0 0 1 .7 1.4v.1l.2.4.2.6c0 .3.4.5.6.4.3 0 .4-.4.4-.6-.3-1-.7-2-1.3-2.8-.1-.2-.4-.3-.6-.1-.3.1-.4.4-.2.6ZM559 371.8c.6 1.1 1.2 2.3 1.6 3.5 0 .2.3.4.6.3.2 0 .4-.3.3-.6-.4-1.3-1-2.5-1.6-3.7-.1-.2-.5-.3-.7-.1-.2.1-.3.4-.2.6ZM530.9 381.7c0-.1 0 0 0 0v.2l.2.2v.5l.3 1c.1.3.4.5.6.4.3-.1.5-.4.4-.6l-.3-1c0-.5-.2-.9-.3-1.2l-.3-.3-.4.1-.2.3v.4ZM537.4 379.6l.5 1v.3l.1.1c0-.1 0 0 0 0l.2.6c.1.2.4.4.7.3.2 0 .4-.3.3-.6-.2-.8-.6-1.5-1-2.2l-.2-.2h-.4l-.2.3v.4ZM543.6 377.7l.8 2.2.3.2h.4l.2-.3v-.4l-.3-.5v-.2l-.1-.2-.4-1c0-.3-.3-.5-.6-.4-.2.1-.4.4-.3.6ZM549.9 375.7l.9 2.4c0 .3.3.4.6.4.2-.1.4-.4.3-.6l-.9-2.4c0-.3-.3-.4-.6-.4-.2.1-.4.4-.3.6ZM556.2 373.8l1.4 2.5c.1.2.5.3.7.1.2-.1.3-.4.2-.6l-1.4-2.5c-.1-.2-.5-.3-.7-.2-.2.2-.3.5-.2.7ZM562.8 371.5l.7 1.1.3.6.1.2v.3c.1.2.4.4.7.3.2 0 .4-.3.3-.6-.2-.9-.7-1.6-1.2-2.4-.1-.2-.4-.3-.7-.1-.2.1-.3.4-.1.6ZM569.8 369l.6 1.4.5 1.4c0 .3.3.4.6.4.2-.1.4-.4.3-.7-.3-1-.5-2-1.2-3-.2-.1-.4-.3-.7-.1-.2.1-.3.5-.1.7Z"
        fill="#212121" />
    <path d="M389.3 471.3c3.3 11.5 5.4 21.9 5.8 34.2M234.8 142a118.9 118.9 0 0 1 37.4-18.2" stroke="#212121"
        stroke-width="3.4" stroke-linecap="round" stroke-linejoin="round" />
    <path fill-rule="evenodd" clip-rule="evenodd"
        d="M95.5 149.4c-.8-.3-1.5-.5-2-.9-2-1.4-3.7-3-5.8-4.6l-4.3 3.3-3 2.3c-.8.5-1.8.7-3 .3.5-3.4 1.9-6.6 2.7-10-1.3-1-2.7-1.7-3.9-2.7-.8-.5-1.5-1.2-2.1-1.9-1-1-.8-1.7.7-2 2-.3 4-.8 6-.9 1.6 0 2.4-.7 2.8-2.2l1.9-5c.2-.5.7-.9 1-1.3.4.4.9.8 1 1.2l1.9 4.4c.7 1.5 1.1 1.6 2.8 1.4l6-.7c.5 0 1.2.2 1.5.6.4.5-.1 1-.6 1.4l-3.7 4.1c-1.8 1.6-1.8 3.4-1.1 5.5l1.2 4.5c.2.9 0 1.9 0 3.2Z"
        fill="#212121" />
</svg>